<svg width="110" height="23" viewBox="0 0 110 23" fill="none" xmlns="http://www.w3.org/2000/svg">
<rect y="0.955078" width="110" height="22" rx="11" fill="#FDF2F2"/>
<g clip-path="url(#clip0_524_6275)">
<path d="M15.1954 14.9622C15.4098 15.7624 14.935 16.5849 14.1348 16.7993C13.3346 17.0138 12.5121 16.5389 12.2977 15.7387M13.4457 8.82526C13.5978 8.55161 13.6479 8.22086 13.5605 7.89456C13.3818 7.22773 12.6964 6.832 12.0295 7.01068C11.3627 7.18935 10.967 7.87477 11.1457 8.54161C11.2331 8.86791 11.4419 9.12929 11.7104 9.29023M16.1179 10.6775C15.9394 10.0114 15.463 9.45443 14.7933 9.12906C14.1237 8.8037 13.3157 8.7366 12.5472 8.94253C11.7786 9.14846 11.1125 9.61055 10.6952 10.2271C10.278 10.8437 10.1439 11.5643 10.3223 12.2304C10.6176 13.3324 10.5603 14.2116 10.3738 14.8797C10.1613 15.6411 10.055 16.0218 10.0837 16.0983C10.1166 16.1857 10.1403 16.2097 10.2274 16.2435C10.3036 16.273 10.6235 16.1873 11.2632 16.0159L17.1958 14.4262C17.8355 14.2548 18.1554 14.1691 18.2066 14.1055C18.2652 14.0327 18.2738 14 18.2585 13.9078C18.2451 13.8273 17.9627 13.5507 17.398 12.9976C16.9024 12.5122 16.4132 11.7795 16.1179 10.6775Z" stroke="#FF7D1E" stroke-width="1.2" stroke-linecap="round" stroke-linejoin="round"/>
</g>
<path d="M30.625 13.2422H31.75C31.6914 13.7812 31.5371 14.2637 31.2871 14.6895C31.0371 15.1152 30.6836 15.4531 30.2266 15.7031C29.7695 15.9492 29.1992 16.0723 28.5156 16.0723C28.0156 16.0723 27.5605 15.9785 27.1504 15.791C26.7441 15.6035 26.3945 15.3379 26.1016 14.9941C25.8086 14.6465 25.582 14.2305 25.4219 13.7461C25.2656 13.2578 25.1875 12.7148 25.1875 12.1172V11.2676C25.1875 10.6699 25.2656 10.1289 25.4219 9.64453C25.582 9.15625 25.8105 8.73828 26.1074 8.39062C26.4082 8.04297 26.7695 7.77539 27.1914 7.58789C27.6133 7.40039 28.0879 7.30664 28.6152 7.30664C29.2598 7.30664 29.8047 7.42773 30.25 7.66992C30.6953 7.91211 31.041 8.24805 31.2871 8.67773C31.5371 9.10352 31.6914 9.59766 31.75 10.1602H30.625C30.5703 9.76172 30.4688 9.41992 30.3203 9.13477C30.1719 8.8457 29.9609 8.62305 29.6875 8.4668C29.4141 8.31055 29.0566 8.23242 28.6152 8.23242C28.2363 8.23242 27.9023 8.30469 27.6133 8.44922C27.3281 8.59375 27.0879 8.79883 26.8926 9.06445C26.7012 9.33008 26.5566 9.64844 26.459 10.0195C26.3613 10.3906 26.3125 10.8027 26.3125 11.2559V12.1172C26.3125 12.5352 26.3555 12.9277 26.4414 13.2949C26.5312 13.6621 26.666 13.9844 26.8457 14.2617C27.0254 14.5391 27.2539 14.7578 27.5312 14.918C27.8086 15.0742 28.1367 15.1523 28.5156 15.1523C28.9961 15.1523 29.3789 15.0762 29.6641 14.9238C29.9492 14.7715 30.1641 14.5527 30.3086 14.2676C30.457 13.9824 30.5625 13.6406 30.625 13.2422ZM34.3047 6.95508V15.9551H33.2148V6.95508H34.3047ZM35.7578 12.8555V12.7207C35.7578 12.2637 35.8242 11.8398 35.957 11.4492C36.0898 11.0547 36.2812 10.7129 36.5312 10.4238C36.7812 10.1309 37.084 9.9043 37.4395 9.74414C37.7949 9.58008 38.1934 9.49805 38.6348 9.49805C39.0801 9.49805 39.4805 9.58008 39.8359 9.74414C40.1953 9.9043 40.5 10.1309 40.75 10.4238C41.0039 10.7129 41.1973 11.0547 41.3301 11.4492C41.4629 11.8398 41.5293 12.2637 41.5293 12.7207V12.8555C41.5293 13.3125 41.4629 13.7363 41.3301 14.127C41.1973 14.5176 41.0039 14.8594 40.75 15.1523C40.5 15.4414 40.1973 15.668 39.8418 15.832C39.4902 15.9922 39.0918 16.0723 38.6465 16.0723C38.2012 16.0723 37.8008 15.9922 37.4453 15.832C37.0898 15.668 36.7852 15.4414 36.5312 15.1523C36.2812 14.8594 36.0898 14.5176 35.957 14.127C35.8242 13.7363 35.7578 13.3125 35.7578 12.8555ZM36.8418 12.7207V12.8555C36.8418 13.1719 36.8789 13.4707 36.9531 13.752C37.0273 14.0293 37.1387 14.2754 37.2871 14.4902C37.4395 14.7051 37.6289 14.875 37.8555 15C38.082 15.1211 38.3457 15.1816 38.6465 15.1816C38.9434 15.1816 39.2031 15.1211 39.4258 15C39.6523 14.875 39.8398 14.7051 39.9883 14.4902C40.1367 14.2754 40.248 14.0293 40.3223 13.752C40.4004 13.4707 40.4395 13.1719 40.4395 12.8555V12.7207C40.4395 12.4082 40.4004 12.1133 40.3223 11.8359C40.248 11.5547 40.1348 11.3066 39.9824 11.0918C39.834 10.873 39.6465 10.7012 39.4199 10.5762C39.1973 10.4512 38.9355 10.3887 38.6348 10.3887C38.3379 10.3887 38.0762 10.4512 37.8496 10.5762C37.627 10.7012 37.4395 10.873 37.2871 11.0918C37.1387 11.3066 37.0273 11.5547 36.9531 11.8359C36.8789 12.1133 36.8418 12.4082 36.8418 12.7207ZM46.5801 14.2734C46.5801 14.1172 46.5449 13.9727 46.4746 13.8398C46.4082 13.7031 46.2695 13.5801 46.0586 13.4707C45.8516 13.3574 45.5391 13.2598 45.1211 13.1777C44.7695 13.1035 44.4512 13.0156 44.166 12.9141C43.8848 12.8125 43.6445 12.6895 43.4453 12.5449C43.25 12.4004 43.0996 12.2305 42.9941 12.0352C42.8887 11.8398 42.8359 11.6113 42.8359 11.3496C42.8359 11.0996 42.8906 10.8633 43 10.6406C43.1133 10.418 43.2715 10.2207 43.4746 10.0488C43.6816 9.87695 43.9297 9.74219 44.2188 9.64453C44.5078 9.54688 44.8301 9.49805 45.1855 9.49805C45.6934 9.49805 46.127 9.58789 46.4863 9.76758C46.8457 9.94727 47.1211 10.1875 47.3125 10.4883C47.5039 10.7852 47.5996 11.1152 47.5996 11.4785H46.5156C46.5156 11.3027 46.4629 11.1328 46.3574 10.9688C46.2559 10.8008 46.1055 10.6621 45.9062 10.5527C45.7109 10.4434 45.4707 10.3887 45.1855 10.3887C44.8848 10.3887 44.6406 10.4355 44.4531 10.5293C44.2695 10.6191 44.1348 10.7344 44.0488 10.875C43.9668 11.0156 43.9258 11.1641 43.9258 11.3203C43.9258 11.4375 43.9453 11.543 43.9844 11.6367C44.0273 11.7266 44.1016 11.8105 44.207 11.8887C44.3125 11.9629 44.4609 12.0332 44.6523 12.0996C44.8438 12.166 45.0879 12.2324 45.3848 12.2988C45.9043 12.416 46.332 12.5566 46.668 12.7207C47.0039 12.8848 47.2539 13.0859 47.418 13.3242C47.582 13.5625 47.6641 13.8516 47.6641 14.1914C47.6641 14.4688 47.6055 14.7227 47.4883 14.9531C47.375 15.1836 47.209 15.3828 46.9902 15.5508C46.7754 15.7148 46.5176 15.8438 46.2168 15.9375C45.9199 16.0273 45.5859 16.0723 45.2148 16.0723C44.6562 16.0723 44.1836 15.9727 43.7969 15.7734C43.4102 15.5742 43.1172 15.3164 42.918 15C42.7188 14.6836 42.6191 14.3496 42.6191 13.998H43.709C43.7246 14.2949 43.8105 14.5312 43.9668 14.707C44.123 14.8789 44.3145 15.002 44.541 15.0762C44.7676 15.1465 44.9922 15.1816 45.2148 15.1816C45.5117 15.1816 45.7598 15.1426 45.959 15.0645C46.1621 14.9863 46.3164 14.8789 46.4219 14.7422C46.5273 14.6055 46.5801 14.4492 46.5801 14.2734ZM51.7188 16.0723C51.2773 16.0723 50.877 15.998 50.5176 15.8496C50.1621 15.6973 49.8555 15.4844 49.5977 15.2109C49.3438 14.9375 49.1484 14.6133 49.0117 14.2383C48.875 13.8633 48.8066 13.4531 48.8066 13.0078V12.7617C48.8066 12.2461 48.8828 11.7871 49.0352 11.3848C49.1875 10.9785 49.3945 10.6348 49.6562 10.3535C49.918 10.0723 50.2148 9.85938 50.5469 9.71484C50.8789 9.57031 51.2227 9.49805 51.5781 9.49805C52.0312 9.49805 52.4219 9.57617 52.75 9.73242C53.082 9.88867 53.3535 10.1074 53.5645 10.3887C53.7754 10.666 53.9316 10.9941 54.0332 11.373C54.1348 11.748 54.1855 12.1582 54.1855 12.6035V13.0898H49.4512V12.2051H53.1016V12.123C53.0859 11.8418 53.0273 11.5684 52.9258 11.3027C52.8281 11.0371 52.6719 10.8184 52.457 10.6465C52.2422 10.4746 51.9492 10.3887 51.5781 10.3887C51.332 10.3887 51.1055 10.4414 50.8984 10.5469C50.6914 10.6484 50.5137 10.8008 50.3652 11.0039C50.2168 11.207 50.1016 11.4551 50.0195 11.748C49.9375 12.041 49.8965 12.3789 49.8965 12.7617V13.0078C49.8965 13.3086 49.9375 13.5918 50.0195 13.8574C50.1055 14.1191 50.2285 14.3496 50.3887 14.5488C50.5527 14.748 50.75 14.9043 50.9805 15.0176C51.2148 15.1309 51.4805 15.1875 51.7773 15.1875C52.1602 15.1875 52.4844 15.1094 52.75 14.9531C53.0156 14.7969 53.248 14.5879 53.4473 14.3262L54.1035 14.8477C53.9668 15.0547 53.793 15.252 53.582 15.4395C53.3711 15.627 53.1113 15.7793 52.8027 15.8965C52.498 16.0137 52.1367 16.0723 51.7188 16.0723ZM61.082 9.61523V10.4473H57.6543V9.61523H61.082ZM58.8145 8.07422H59.8984V14.3848C59.8984 14.5996 59.9316 14.7617 59.998 14.8711C60.0645 14.9805 60.1504 15.0527 60.2559 15.0879C60.3613 15.123 60.4746 15.1406 60.5957 15.1406C60.6855 15.1406 60.7793 15.1328 60.877 15.1172C60.9785 15.0977 61.0547 15.082 61.1055 15.0703L61.1113 15.9551C61.0254 15.9824 60.9121 16.0078 60.7715 16.0312C60.6348 16.0586 60.4688 16.0723 60.2734 16.0723C60.0078 16.0723 59.7637 16.0195 59.541 15.9141C59.3184 15.8086 59.1406 15.6328 59.0078 15.3867C58.8789 15.1367 58.8145 14.8008 58.8145 14.3789V8.07422ZM61.9492 12.8555V12.7207C61.9492 12.2637 62.0156 11.8398 62.1484 11.4492C62.2812 11.0547 62.4727 10.7129 62.7227 10.4238C62.9727 10.1309 63.2754 9.9043 63.6309 9.74414C63.9863 9.58008 64.3848 9.49805 64.8262 9.49805C65.2715 9.49805 65.6719 9.58008 66.0273 9.74414C66.3867 9.9043 66.6914 10.1309 66.9414 10.4238C67.1953 10.7129 67.3887 11.0547 67.5215 11.4492C67.6543 11.8398 67.7207 12.2637 67.7207 12.7207V12.8555C67.7207 13.3125 67.6543 13.7363 67.5215 14.127C67.3887 14.5176 67.1953 14.8594 66.9414 15.1523C66.6914 15.4414 66.3887 15.668 66.0332 15.832C65.6816 15.9922 65.2832 16.0723 64.8379 16.0723C64.3926 16.0723 63.9922 15.9922 63.6367 15.832C63.2812 15.668 62.9766 15.4414 62.7227 15.1523C62.4727 14.8594 62.2812 14.5176 62.1484 14.127C62.0156 13.7363 61.9492 13.3125 61.9492 12.8555ZM63.0332 12.7207V12.8555C63.0332 13.1719 63.0703 13.4707 63.1445 13.752C63.2188 14.0293 63.3301 14.2754 63.4785 14.4902C63.6309 14.7051 63.8203 14.875 64.0469 15C64.2734 15.1211 64.5371 15.1816 64.8379 15.1816C65.1348 15.1816 65.3945 15.1211 65.6172 15C65.8438 14.875 66.0312 14.7051 66.1797 14.4902C66.3281 14.2754 66.4395 14.0293 66.5137 13.752C66.5918 13.4707 66.6309 13.1719 66.6309 12.8555V12.7207C66.6309 12.4082 66.5918 12.1133 66.5137 11.8359C66.4395 11.5547 66.3262 11.3066 66.1738 11.0918C66.0254 10.873 65.8379 10.7012 65.6113 10.5762C65.3887 10.4512 65.127 10.3887 64.8262 10.3887C64.5293 10.3887 64.2676 10.4512 64.041 10.5762C63.8184 10.7012 63.6309 10.873 63.4785 11.0918C63.3301 11.3066 63.2188 11.5547 63.1445 11.8359C63.0703 12.1133 63.0332 12.4082 63.0332 12.7207ZM74.6875 16.0723C74.2461 16.0723 73.8457 15.998 73.4863 15.8496C73.1309 15.6973 72.8242 15.4844 72.5664 15.2109C72.3125 14.9375 72.1172 14.6133 71.9805 14.2383C71.8438 13.8633 71.7754 13.4531 71.7754 13.0078V12.7617C71.7754 12.2461 71.8516 11.7871 72.0039 11.3848C72.1562 10.9785 72.3633 10.6348 72.625 10.3535C72.8867 10.0723 73.1836 9.85938 73.5156 9.71484C73.8477 9.57031 74.1914 9.49805 74.5469 9.49805C75 9.49805 75.3906 9.57617 75.7188 9.73242C76.0508 9.88867 76.3223 10.1074 76.5332 10.3887C76.7441 10.666 76.9004 10.9941 77.002 11.373C77.1035 11.748 77.1543 12.1582 77.1543 12.6035V13.0898H72.4199V12.2051H76.0703V12.123C76.0547 11.8418 75.9961 11.5684 75.8945 11.3027C75.7969 11.0371 75.6406 10.8184 75.4258 10.6465C75.2109 10.4746 74.918 10.3887 74.5469 10.3887C74.3008 10.3887 74.0742 10.4414 73.8672 10.5469C73.6602 10.6484 73.4824 10.8008 73.334 11.0039C73.1855 11.207 73.0703 11.4551 72.9883 11.748C72.9062 12.041 72.8652 12.3789 72.8652 12.7617V13.0078C72.8652 13.3086 72.9062 13.5918 72.9883 13.8574C73.0742 14.1191 73.1973 14.3496 73.3574 14.5488C73.5215 14.748 73.7188 14.9043 73.9492 15.0176C74.1836 15.1309 74.4492 15.1875 74.7461 15.1875C75.1289 15.1875 75.4531 15.1094 75.7188 14.9531C75.9844 14.7969 76.2168 14.5879 76.416 14.3262L77.0723 14.8477C76.9355 15.0547 76.7617 15.252 76.5508 15.4395C76.3398 15.627 76.0801 15.7793 75.7715 15.8965C75.4668 16.0137 75.1055 16.0723 74.6875 16.0723ZM79.1523 9.61523L80.541 11.9238L81.9473 9.61523H83.2188L81.1445 12.7441L83.2832 15.9551H82.0293L80.5645 13.5762L79.0996 15.9551H77.8398L79.9727 12.7441L77.9043 9.61523H79.1523ZM85.457 10.834V18.3926H84.3672V9.61523H85.3633L85.457 10.834ZM89.7285 12.7324V12.8555C89.7285 13.3164 89.6738 13.7441 89.5645 14.1387C89.4551 14.5293 89.2949 14.8691 89.084 15.1582C88.877 15.4473 88.6211 15.6719 88.3164 15.832C88.0117 15.9922 87.6621 16.0723 87.2676 16.0723C86.8652 16.0723 86.5098 16.0059 86.2012 15.873C85.8926 15.7402 85.6309 15.5469 85.416 15.293C85.2012 15.0391 85.0293 14.7344 84.9004 14.3789C84.7754 14.0234 84.6895 13.623 84.6426 13.1777V12.5215C84.6895 12.0527 84.7773 11.6328 84.9062 11.2617C85.0352 10.8906 85.2051 10.5742 85.416 10.3125C85.6309 10.0469 85.8906 9.8457 86.1953 9.70898C86.5 9.56836 86.8516 9.49805 87.25 9.49805C87.6484 9.49805 88.002 9.57617 88.3105 9.73242C88.6191 9.88477 88.8789 10.1035 89.0898 10.3887C89.3008 10.6738 89.459 11.0156 89.5645 11.4141C89.6738 11.8086 89.7285 12.248 89.7285 12.7324ZM88.6387 12.8555V12.7324C88.6387 12.416 88.6055 12.1191 88.5391 11.8418C88.4727 11.5605 88.3691 11.3145 88.2285 11.1035C88.0918 10.8887 87.916 10.7207 87.7012 10.5996C87.4863 10.4746 87.2305 10.4121 86.9336 10.4121C86.6602 10.4121 86.4219 10.459 86.2188 10.5527C86.0195 10.6465 85.8496 10.7734 85.709 10.9336C85.5684 11.0898 85.4531 11.2695 85.3633 11.4727C85.2773 11.6719 85.2129 11.8789 85.1699 12.0938V13.6113C85.248 13.8848 85.3574 14.1426 85.498 14.3848C85.6387 14.623 85.8262 14.8164 86.0605 14.9648C86.2949 15.1094 86.5898 15.1816 86.9453 15.1816C87.2383 15.1816 87.4902 15.1211 87.7012 15C87.916 14.875 88.0918 14.7051 88.2285 14.4902C88.3691 14.2754 88.4727 14.0293 88.5391 13.752C88.6055 13.4707 88.6387 13.1719 88.6387 12.8555ZM92.2891 9.61523V15.9551H91.1992V9.61523H92.2891ZM91.1172 7.93359C91.1172 7.75781 91.1699 7.60938 91.2754 7.48828C91.3848 7.36719 91.5449 7.30664 91.7559 7.30664C91.9629 7.30664 92.1211 7.36719 92.2305 7.48828C92.3438 7.60938 92.4004 7.75781 92.4004 7.93359C92.4004 8.10156 92.3438 8.24609 92.2305 8.36719C92.1211 8.48438 91.9629 8.54297 91.7559 8.54297C91.5449 8.54297 91.3848 8.48438 91.2754 8.36719C91.1699 8.24609 91.1172 8.10156 91.1172 7.93359ZM95.1133 10.6113V15.9551H94.0293V9.61523H95.084L95.1133 10.6113ZM97.0938 9.58008L97.0879 10.5879C96.998 10.5684 96.9121 10.5566 96.8301 10.5527C96.752 10.5449 96.6621 10.541 96.5605 10.541C96.3105 10.541 96.0898 10.5801 95.8984 10.6582C95.707 10.7363 95.5449 10.8457 95.4121 10.9863C95.2793 11.127 95.1738 11.2949 95.0957 11.4902C95.0215 11.6816 94.9727 11.8926 94.9492 12.123L94.6445 12.2988C94.6445 11.916 94.6816 11.5566 94.7559 11.2207C94.834 10.8848 94.9531 10.5879 95.1133 10.3301C95.2734 10.0684 95.4766 9.86523 95.7227 9.7207C95.9727 9.57227 96.2695 9.49805 96.6133 9.49805C96.6914 9.49805 96.7812 9.50781 96.8828 9.52734C96.9844 9.54297 97.0547 9.56055 97.0938 9.58008ZM100.609 16.0723C100.168 16.0723 99.7676 15.998 99.4082 15.8496C99.0527 15.6973 98.7461 15.4844 98.4883 15.2109C98.2344 14.9375 98.0391 14.6133 97.9023 14.2383C97.7656 13.8633 97.6973 13.4531 97.6973 13.0078V12.7617C97.6973 12.2461 97.7734 11.7871 97.9258 11.3848C98.0781 10.9785 98.2852 10.6348 98.5469 10.3535C98.8086 10.0723 99.1055 9.85938 99.4375 9.71484C99.7695 9.57031 100.113 9.49805 100.469 9.49805C100.922 9.49805 101.312 9.57617 101.641 9.73242C101.973 9.88867 102.244 10.1074 102.455 10.3887C102.666 10.666 102.822 10.9941 102.924 11.373C103.025 11.748 103.076 12.1582 103.076 12.6035V13.0898H98.3418V12.2051H101.992V12.123C101.977 11.8418 101.918 11.5684 101.816 11.3027C101.719 11.0371 101.562 10.8184 101.348 10.6465C101.133 10.4746 100.84 10.3887 100.469 10.3887C100.223 10.3887 99.9961 10.4414 99.7891 10.5469C99.582 10.6484 99.4043 10.8008 99.2559 11.0039C99.1074 11.207 98.9922 11.4551 98.9102 11.748C98.8281 12.041 98.7871 12.3789 98.7871 12.7617V13.0078C98.7871 13.3086 98.8281 13.5918 98.9102 13.8574C98.9961 14.1191 99.1191 14.3496 99.2793 14.5488C99.4434 14.748 99.6406 14.9043 99.8711 15.0176C100.105 15.1309 100.371 15.1875 100.668 15.1875C101.051 15.1875 101.375 15.1094 101.641 14.9531C101.906 14.7969 102.139 14.5879 102.338 14.3262L102.994 14.8477C102.857 15.0547 102.684 15.252 102.473 15.4395C102.262 15.627 102.002 15.7793 101.693 15.8965C101.389 16.0137 101.027 16.0723 100.609 16.0723Z" fill="#FF7D1E"/>
<defs>
<clipPath id="clip0_524_6275">
<rect width="12" height="12" fill="white" transform="translate(8 5.95508)"/>
</clipPath>
</defs>
</svg>
