<svg width="124" height="22" viewBox="0 0 124 22" fill="none" xmlns="http://www.w3.org/2000/svg">
<rect width="124" height="22" rx="11" fill="#FDF2F2"/>
<path d="M15.1954 14.0076C15.4098 14.8078 14.935 15.6303 14.1348 15.8448C13.3346 16.0592 12.5121 15.5843 12.2977 14.7841M13.4457 7.87067C13.5978 7.59702 13.6479 7.26627 13.5605 6.93997C13.3818 6.27314 12.6964 5.87741 12.0295 6.05609C11.3627 6.23476 10.967 6.92019 11.1457 7.58702C11.2331 7.91332 11.4419 8.1747 11.7104 8.33564M16.1179 9.72289C15.9394 9.05682 15.463 8.49984 14.7933 8.17447C14.1237 7.84911 13.3157 7.78201 12.5472 7.98794C11.7786 8.19387 11.1125 8.65596 10.6952 9.27255C10.278 9.88914 10.1439 10.6097 10.3223 11.2758C10.6176 12.3778 10.5603 13.257 10.3738 13.9251C10.1613 14.6865 10.055 15.0672 10.0837 15.1437C10.1166 15.2311 10.1403 15.2551 10.2274 15.2889C10.3036 15.3184 10.6235 15.2327 11.2632 15.0613L17.1958 13.4716C17.8355 13.3002 18.1554 13.2145 18.2066 13.1509C18.2652 13.0781 18.2738 13.0454 18.2585 12.9533C18.2451 12.8727 17.9627 12.5961 17.398 12.043C16.9024 11.5576 16.4132 10.8249 16.1179 9.72289Z" stroke="#E92841" stroke-width="1.2" stroke-linecap="round" stroke-linejoin="round"/>
<path d="M26.5566 6.46875V15H25.4258V6.46875H26.5566ZM29.5273 9.91992V15H28.4375V8.66016H29.4688L29.5273 9.91992ZM29.3047 11.5898L28.8008 11.5723C28.8047 11.1387 28.8613 10.7383 28.9707 10.3711C29.0801 10 29.2422 9.67773 29.457 9.4043C29.6719 9.13086 29.9395 8.91992 30.2598 8.77148C30.5801 8.61914 30.9512 8.54297 31.373 8.54297C31.6699 8.54297 31.9434 8.58594 32.1934 8.67188C32.4434 8.75391 32.6602 8.88477 32.8438 9.06445C33.0273 9.24414 33.1699 9.47461 33.2715 9.75586C33.373 10.0371 33.4238 10.377 33.4238 10.7754V15H32.3398V10.8281C32.3398 10.4961 32.2832 10.2305 32.1699 10.0312C32.0605 9.83203 31.9043 9.6875 31.7012 9.59766C31.498 9.50391 31.2598 9.45703 30.9863 9.45703C30.666 9.45703 30.3984 9.51367 30.1836 9.62695C29.9688 9.74023 29.7969 9.89648 29.668 10.0957C29.5391 10.2949 29.4453 10.5234 29.3867 10.7812C29.332 11.0352 29.3047 11.3047 29.3047 11.5898ZM33.4121 10.9922L32.6855 11.2148C32.6895 10.8672 32.7461 10.5332 32.8555 10.2129C32.9688 9.89258 33.1309 9.60742 33.3418 9.35742C33.5566 9.10742 33.8203 8.91016 34.1328 8.76562C34.4453 8.61719 34.8027 8.54297 35.2051 8.54297C35.5449 8.54297 35.8457 8.58789 36.1074 8.67773C36.373 8.76758 36.5957 8.90625 36.7754 9.09375C36.959 9.27734 37.0977 9.51367 37.1914 9.80273C37.2852 10.0918 37.332 10.4355 37.332 10.834V15H36.2422V10.8223C36.2422 10.4668 36.1855 10.1914 36.0723 9.99609C35.9629 9.79688 35.8066 9.6582 35.6035 9.58008C35.4043 9.49805 35.166 9.45703 34.8887 9.45703C34.6504 9.45703 34.4395 9.49805 34.2559 9.58008C34.0723 9.66211 33.918 9.77539 33.793 9.91992C33.668 10.0605 33.5723 10.2227 33.5059 10.4062C33.4434 10.5898 33.4121 10.7852 33.4121 10.9922ZM40.0508 9.91992V15H38.9609V8.66016H39.9922L40.0508 9.91992ZM39.8281 11.5898L39.3242 11.5723C39.3281 11.1387 39.3848 10.7383 39.4941 10.3711C39.6035 10 39.7656 9.67773 39.9805 9.4043C40.1953 9.13086 40.4629 8.91992 40.7832 8.77148C41.1035 8.61914 41.4746 8.54297 41.8965 8.54297C42.1934 8.54297 42.4668 8.58594 42.7168 8.67188C42.9668 8.75391 43.1836 8.88477 43.3672 9.06445C43.5508 9.24414 43.6934 9.47461 43.7949 9.75586C43.8965 10.0371 43.9473 10.377 43.9473 10.7754V15H42.8633V10.8281C42.8633 10.4961 42.8066 10.2305 42.6934 10.0312C42.584 9.83203 42.4277 9.6875 42.2246 9.59766C42.0215 9.50391 41.7832 9.45703 41.5098 9.45703C41.1895 9.45703 40.9219 9.51367 40.707 9.62695C40.4922 9.74023 40.3203 9.89648 40.1914 10.0957C40.0625 10.2949 39.9688 10.5234 39.9102 10.7812C39.8555 11.0352 39.8281 11.3047 39.8281 11.5898ZM43.9355 10.9922L43.209 11.2148C43.2129 10.8672 43.2695 10.5332 43.3789 10.2129C43.4922 9.89258 43.6543 9.60742 43.8652 9.35742C44.0801 9.10742 44.3438 8.91016 44.6562 8.76562C44.9688 8.61719 45.3262 8.54297 45.7285 8.54297C46.0684 8.54297 46.3691 8.58789 46.6309 8.67773C46.8965 8.76758 47.1191 8.90625 47.2988 9.09375C47.4824 9.27734 47.6211 9.51367 47.7148 9.80273C47.8086 10.0918 47.8555 10.4355 47.8555 10.834V15H46.7656V10.8223C46.7656 10.4668 46.709 10.1914 46.5957 9.99609C46.4863 9.79688 46.3301 9.6582 46.127 9.58008C45.9277 9.49805 45.6895 9.45703 45.4121 9.45703C45.1738 9.45703 44.9629 9.49805 44.7793 9.58008C44.5957 9.66211 44.4414 9.77539 44.3164 9.91992C44.1914 10.0605 44.0957 10.2227 44.0293 10.4062C43.9668 10.5898 43.9355 10.7852 43.9355 10.9922ZM52.127 15.1172C51.6855 15.1172 51.2852 15.043 50.9258 14.8945C50.5703 14.7422 50.2637 14.5293 50.0059 14.2559C49.752 13.9824 49.5566 13.6582 49.4199 13.2832C49.2832 12.9082 49.2148 12.498 49.2148 12.0527V11.8066C49.2148 11.291 49.291 10.832 49.4434 10.4297C49.5957 10.0234 49.8027 9.67969 50.0645 9.39844C50.3262 9.11719 50.623 8.9043 50.9551 8.75977C51.2871 8.61523 51.6309 8.54297 51.9863 8.54297C52.4395 8.54297 52.8301 8.62109 53.1582 8.77734C53.4902 8.93359 53.7617 9.15234 53.9727 9.43359C54.1836 9.71094 54.3398 10.0391 54.4414 10.418C54.543 10.793 54.5938 11.2031 54.5938 11.6484V12.1348H49.8594V11.25H53.5098V11.168C53.4941 10.8867 53.4355 10.6133 53.334 10.3477C53.2363 10.082 53.0801 9.86328 52.8652 9.69141C52.6504 9.51953 52.3574 9.43359 51.9863 9.43359C51.7402 9.43359 51.5137 9.48633 51.3066 9.5918C51.0996 9.69336 50.9219 9.8457 50.7734 10.0488C50.625 10.252 50.5098 10.5 50.4277 10.793C50.3457 11.0859 50.3047 11.4238 50.3047 11.8066V12.0527C50.3047 12.3535 50.3457 12.6367 50.4277 12.9023C50.5137 13.1641 50.6367 13.3945 50.7969 13.5938C50.9609 13.793 51.1582 13.9492 51.3887 14.0625C51.623 14.1758 51.8887 14.2324 52.1855 14.2324C52.5684 14.2324 52.8926 14.1543 53.1582 13.998C53.4238 13.8418 53.6562 13.6328 53.8555 13.3711L54.5117 13.8926C54.375 14.0996 54.2012 14.2969 53.9902 14.4844C53.7793 14.6719 53.5195 14.8242 53.2109 14.9414C52.9062 15.0586 52.5449 15.1172 52.127 15.1172ZM59.8555 13.7695V6H60.9453V15H59.9492L59.8555 13.7695ZM55.5898 11.9004V11.7773C55.5898 11.293 55.6484 10.8535 55.7656 10.459C55.8867 10.0605 56.0566 9.71875 56.2754 9.43359C56.498 9.14844 56.7617 8.92969 57.0664 8.77734C57.375 8.62109 57.7188 8.54297 58.0977 8.54297C58.4961 8.54297 58.8438 8.61328 59.1406 8.75391C59.4414 8.89062 59.6953 9.0918 59.9023 9.35742C60.1133 9.61914 60.2793 9.93555 60.4004 10.3066C60.5215 10.6777 60.6055 11.0977 60.6523 11.5664V12.1055C60.6094 12.5703 60.5254 12.9883 60.4004 13.3594C60.2793 13.7305 60.1133 14.0469 59.9023 14.3086C59.6953 14.5703 59.4414 14.7715 59.1406 14.9121C58.8398 15.0488 58.4883 15.1172 58.0859 15.1172C57.7148 15.1172 57.375 15.0371 57.0664 14.877C56.7617 14.7168 56.498 14.4922 56.2754 14.2031C56.0566 13.9141 55.8867 13.5742 55.7656 13.1836C55.6484 12.7891 55.5898 12.3613 55.5898 11.9004ZM56.6797 11.7773V11.9004C56.6797 12.2168 56.7109 12.5137 56.7734 12.791C56.8398 13.0684 56.9414 13.3125 57.0781 13.5234C57.2148 13.7344 57.3887 13.9004 57.5996 14.0215C57.8105 14.1387 58.0625 14.1973 58.3555 14.1973C58.7148 14.1973 59.0098 14.1211 59.2402 13.9688C59.4746 13.8164 59.6621 13.6152 59.8027 13.3652C59.9434 13.1152 60.0527 12.8438 60.1309 12.5508V11.1387C60.084 10.9238 60.0156 10.7168 59.9258 10.5176C59.8398 10.3145 59.7266 10.1348 59.5859 9.97852C59.4492 9.81836 59.2793 9.69141 59.0762 9.59766C58.877 9.50391 58.6406 9.45703 58.3672 9.45703C58.0703 9.45703 57.8145 9.51953 57.5996 9.64453C57.3887 9.76562 57.2148 9.93359 57.0781 10.1484C56.9414 10.3594 56.8398 10.6055 56.7734 10.8867C56.7109 11.1641 56.6797 11.4609 56.6797 11.7773ZM63.8105 8.66016V15H62.7207V8.66016H63.8105ZM62.6387 6.97852C62.6387 6.80273 62.6914 6.6543 62.7969 6.5332C62.9062 6.41211 63.0664 6.35156 63.2773 6.35156C63.4844 6.35156 63.6426 6.41211 63.752 6.5332C63.8652 6.6543 63.9219 6.80273 63.9219 6.97852C63.9219 7.14648 63.8652 7.29102 63.752 7.41211C63.6426 7.5293 63.4844 7.58789 63.2773 7.58789C63.0664 7.58789 62.9062 7.5293 62.7969 7.41211C62.6914 7.29102 62.6387 7.14648 62.6387 6.97852ZM69.2891 13.916V10.6523C69.2891 10.4023 69.2383 10.1855 69.1367 10.002C69.0391 9.81445 68.8906 9.66992 68.6914 9.56836C68.4922 9.4668 68.2461 9.41602 67.9531 9.41602C67.6797 9.41602 67.4395 9.46289 67.2324 9.55664C67.0293 9.65039 66.8691 9.77344 66.752 9.92578C66.6387 10.0781 66.582 10.2422 66.582 10.418H65.498C65.498 10.1914 65.5566 9.9668 65.6738 9.74414C65.791 9.52148 65.959 9.32031 66.1777 9.14062C66.4004 8.95703 66.666 8.8125 66.9746 8.70703C67.2871 8.59766 67.6348 8.54297 68.0176 8.54297C68.4785 8.54297 68.8848 8.62109 69.2363 8.77734C69.5918 8.93359 69.8691 9.16992 70.0684 9.48633C70.2715 9.79883 70.373 10.1914 70.373 10.6641V13.6172C70.373 13.8281 70.3906 14.0527 70.4258 14.291C70.4648 14.5293 70.5215 14.7344 70.5957 14.9062V15H69.4648C69.4102 14.875 69.3672 14.709 69.3359 14.502C69.3047 14.291 69.2891 14.0957 69.2891 13.916ZM69.4766 11.1562L69.4883 11.918H68.3926C68.084 11.918 67.8086 11.9434 67.5664 11.9941C67.3242 12.041 67.1211 12.1133 66.957 12.2109C66.793 12.3086 66.668 12.4316 66.582 12.5801C66.4961 12.7246 66.4531 12.8945 66.4531 13.0898C66.4531 13.2891 66.498 13.4707 66.5879 13.6348C66.6777 13.7988 66.8125 13.9297 66.9922 14.0273C67.1758 14.1211 67.4004 14.168 67.666 14.168C67.998 14.168 68.291 14.0977 68.5449 13.957C68.7988 13.8164 69 13.6445 69.1484 13.4414C69.3008 13.2383 69.3828 13.041 69.3945 12.8496L69.8574 13.3711C69.8301 13.5352 69.7559 13.7168 69.6348 13.916C69.5137 14.1152 69.3516 14.3066 69.1484 14.4902C68.9492 14.6699 68.7109 14.8203 68.4336 14.9414C68.1602 15.0586 67.8516 15.1172 67.5078 15.1172C67.0781 15.1172 66.7012 15.0332 66.377 14.8652C66.0566 14.6973 65.8066 14.4727 65.627 14.1914C65.4512 13.9062 65.3633 13.5879 65.3633 13.2363C65.3633 12.8965 65.4297 12.5977 65.5625 12.3398C65.6953 12.0781 65.8867 11.8613 66.1367 11.6895C66.3867 11.5137 66.6875 11.3809 67.0391 11.291C67.3906 11.2012 67.7832 11.1562 68.2168 11.1562H69.4766ZM74.7324 8.66016V9.49219H71.3047V8.66016H74.7324ZM72.4648 7.11914H73.5488V13.4297C73.5488 13.6445 73.582 13.8066 73.6484 13.916C73.7148 14.0254 73.8008 14.0977 73.9062 14.1328C74.0117 14.168 74.125 14.1855 74.2461 14.1855C74.3359 14.1855 74.4297 14.1777 74.5273 14.1621C74.6289 14.1426 74.7051 14.127 74.7559 14.1152L74.7617 15C74.6758 15.0273 74.5625 15.0527 74.4219 15.0762C74.2852 15.1035 74.1191 15.1172 73.9238 15.1172C73.6582 15.1172 73.4141 15.0645 73.1914 14.959C72.9688 14.8535 72.791 14.6777 72.6582 14.4316C72.5293 14.1816 72.4648 13.8457 72.4648 13.4238V7.11914ZM78.6348 15.1172C78.1934 15.1172 77.793 15.043 77.4336 14.8945C77.0781 14.7422 76.7715 14.5293 76.5137 14.2559C76.2598 13.9824 76.0645 13.6582 75.9277 13.2832C75.791 12.9082 75.7227 12.498 75.7227 12.0527V11.8066C75.7227 11.291 75.7988 10.832 75.9512 10.4297C76.1035 10.0234 76.3105 9.67969 76.5723 9.39844C76.834 9.11719 77.1309 8.9043 77.4629 8.75977C77.7949 8.61523 78.1387 8.54297 78.4941 8.54297C78.9473 8.54297 79.3379 8.62109 79.666 8.77734C79.998 8.93359 80.2695 9.15234 80.4805 9.43359C80.6914 9.71094 80.8477 10.0391 80.9492 10.418C81.0508 10.793 81.1016 11.2031 81.1016 11.6484V12.1348H76.3672V11.25H80.0176V11.168C80.002 10.8867 79.9434 10.6133 79.8418 10.3477C79.7441 10.082 79.5879 9.86328 79.373 9.69141C79.1582 9.51953 78.8652 9.43359 78.4941 9.43359C78.248 9.43359 78.0215 9.48633 77.8145 9.5918C77.6074 9.69336 77.4297 9.8457 77.2812 10.0488C77.1328 10.252 77.0176 10.5 76.9355 10.793C76.8535 11.0859 76.8125 11.4238 76.8125 11.8066V12.0527C76.8125 12.3535 76.8535 12.6367 76.9355 12.9023C77.0215 13.1641 77.1445 13.3945 77.3047 13.5938C77.4688 13.793 77.666 13.9492 77.8965 14.0625C78.1309 14.1758 78.3965 14.2324 78.6934 14.2324C79.0762 14.2324 79.4004 14.1543 79.666 13.998C79.9316 13.8418 80.1641 13.6328 80.3633 13.3711L81.0195 13.8926C80.8828 14.0996 80.709 14.2969 80.498 14.4844C80.2871 14.6719 80.0273 14.8242 79.7188 14.9414C79.4141 15.0586 79.0527 15.1172 78.6348 15.1172ZM89.082 13.916V10.6523C89.082 10.4023 89.0312 10.1855 88.9297 10.002C88.832 9.81445 88.6836 9.66992 88.4844 9.56836C88.2852 9.4668 88.0391 9.41602 87.7461 9.41602C87.4727 9.41602 87.2324 9.46289 87.0254 9.55664C86.8223 9.65039 86.6621 9.77344 86.5449 9.92578C86.4316 10.0781 86.375 10.2422 86.375 10.418H85.291C85.291 10.1914 85.3496 9.9668 85.4668 9.74414C85.584 9.52148 85.752 9.32031 85.9707 9.14062C86.1934 8.95703 86.459 8.8125 86.7676 8.70703C87.0801 8.59766 87.4277 8.54297 87.8105 8.54297C88.2715 8.54297 88.6777 8.62109 89.0293 8.77734C89.3848 8.93359 89.6621 9.16992 89.8613 9.48633C90.0645 9.79883 90.166 10.1914 90.166 10.6641V13.6172C90.166 13.8281 90.1836 14.0527 90.2188 14.291C90.2578 14.5293 90.3145 14.7344 90.3887 14.9062V15H89.2578C89.2031 14.875 89.1602 14.709 89.1289 14.502C89.0977 14.291 89.082 14.0957 89.082 13.916ZM89.2695 11.1562L89.2812 11.918H88.1855C87.877 11.918 87.6016 11.9434 87.3594 11.9941C87.1172 12.041 86.9141 12.1133 86.75 12.2109C86.5859 12.3086 86.4609 12.4316 86.375 12.5801C86.2891 12.7246 86.2461 12.8945 86.2461 13.0898C86.2461 13.2891 86.291 13.4707 86.3809 13.6348C86.4707 13.7988 86.6055 13.9297 86.7852 14.0273C86.9688 14.1211 87.1934 14.168 87.459 14.168C87.791 14.168 88.084 14.0977 88.3379 13.957C88.5918 13.8164 88.793 13.6445 88.9414 13.4414C89.0938 13.2383 89.1758 13.041 89.1875 12.8496L89.6504 13.3711C89.623 13.5352 89.5488 13.7168 89.4277 13.916C89.3066 14.1152 89.1445 14.3066 88.9414 14.4902C88.7422 14.6699 88.5039 14.8203 88.2266 14.9414C87.9531 15.0586 87.6445 15.1172 87.3008 15.1172C86.8711 15.1172 86.4941 15.0332 86.1699 14.8652C85.8496 14.6973 85.5996 14.4727 85.4199 14.1914C85.2441 13.9062 85.1562 13.5879 85.1562 13.2363C85.1562 12.8965 85.2227 12.5977 85.3555 12.3398C85.4883 12.0781 85.6797 11.8613 85.9297 11.6895C86.1797 11.5137 86.4805 11.3809 86.832 11.291C87.1836 11.2012 87.5762 11.1562 88.0098 11.1562H89.2695ZM94.4082 14.2266C94.666 14.2266 94.9043 14.1738 95.123 14.0684C95.3418 13.9629 95.5215 13.8184 95.6621 13.6348C95.8027 13.4473 95.8828 13.2344 95.9023 12.9961H96.9336C96.9141 13.3711 96.7871 13.7207 96.5527 14.0449C96.3223 14.3652 96.0195 14.625 95.6445 14.8242C95.2695 15.0195 94.8574 15.1172 94.4082 15.1172C93.9316 15.1172 93.5156 15.0332 93.1602 14.8652C92.8086 14.6973 92.5156 14.4668 92.2812 14.1738C92.0508 13.8809 91.877 13.5449 91.7598 13.166C91.6465 12.7832 91.5898 12.3789 91.5898 11.9531V11.707C91.5898 11.2812 91.6465 10.8789 91.7598 10.5C91.877 10.1172 92.0508 9.7793 92.2812 9.48633C92.5156 9.19336 92.8086 8.96289 93.1602 8.79492C93.5156 8.62695 93.9316 8.54297 94.4082 8.54297C94.9043 8.54297 95.3379 8.64453 95.709 8.84766C96.0801 9.04688 96.3711 9.32031 96.582 9.66797C96.7969 10.0117 96.9141 10.4023 96.9336 10.8398H95.9023C95.8828 10.5781 95.8086 10.3418 95.6797 10.1309C95.5547 9.91992 95.3828 9.75195 95.1641 9.62695C94.9492 9.49805 94.6973 9.43359 94.4082 9.43359C94.0762 9.43359 93.7969 9.5 93.5703 9.63281C93.3477 9.76172 93.1699 9.9375 93.0371 10.1602C92.9082 10.3789 92.8145 10.623 92.7559 10.8926C92.7012 11.1582 92.6738 11.4297 92.6738 11.707V11.9531C92.6738 12.2305 92.7012 12.5039 92.7559 12.7734C92.8105 13.043 92.9023 13.2871 93.0312 13.5059C93.1641 13.7246 93.3418 13.9004 93.5645 14.0332C93.791 14.1621 94.0723 14.2266 94.4082 14.2266ZM100.807 8.66016V9.49219H97.3789V8.66016H100.807ZM98.5391 7.11914H99.623V13.4297C99.623 13.6445 99.6562 13.8066 99.7227 13.916C99.7891 14.0254 99.875 14.0977 99.9805 14.1328C100.086 14.168 100.199 14.1855 100.32 14.1855C100.41 14.1855 100.504 14.1777 100.602 14.1621C100.703 14.1426 100.779 14.127 100.83 14.1152L100.836 15C100.75 15.0273 100.637 15.0527 100.496 15.0762C100.359 15.1035 100.193 15.1172 99.998 15.1172C99.7324 15.1172 99.4883 15.0645 99.2656 14.959C99.043 14.8535 98.8652 14.6777 98.7324 14.4316C98.6035 14.1816 98.5391 13.8457 98.5391 13.4238V7.11914ZM103.256 8.66016V15H102.166V8.66016H103.256ZM102.084 6.97852C102.084 6.80273 102.137 6.6543 102.242 6.5332C102.352 6.41211 102.512 6.35156 102.723 6.35156C102.93 6.35156 103.088 6.41211 103.197 6.5332C103.311 6.6543 103.367 6.80273 103.367 6.97852C103.367 7.14648 103.311 7.29102 103.197 7.41211C103.088 7.5293 102.93 7.58789 102.723 7.58789C102.512 7.58789 102.352 7.5293 102.242 7.41211C102.137 7.29102 102.084 7.14648 102.084 6.97852ZM104.709 11.9004V11.7656C104.709 11.3086 104.775 10.8848 104.908 10.4941C105.041 10.0996 105.232 9.75781 105.482 9.46875C105.732 9.17578 106.035 8.94922 106.391 8.78906C106.746 8.625 107.145 8.54297 107.586 8.54297C108.031 8.54297 108.432 8.625 108.787 8.78906C109.146 8.94922 109.451 9.17578 109.701 9.46875C109.955 9.75781 110.148 10.0996 110.281 10.4941C110.414 10.8848 110.48 11.3086 110.48 11.7656V11.9004C110.48 12.3574 110.414 12.7812 110.281 13.1719C110.148 13.5625 109.955 13.9043 109.701 14.1973C109.451 14.4863 109.148 14.7129 108.793 14.877C108.441 15.0371 108.043 15.1172 107.598 15.1172C107.152 15.1172 106.752 15.0371 106.396 14.877C106.041 14.7129 105.736 14.4863 105.482 14.1973C105.232 13.9043 105.041 13.5625 104.908 13.1719C104.775 12.7812 104.709 12.3574 104.709 11.9004ZM105.793 11.7656V11.9004C105.793 12.2168 105.83 12.5156 105.904 12.7969C105.979 13.0742 106.09 13.3203 106.238 13.5352C106.391 13.75 106.58 13.9199 106.807 14.0449C107.033 14.166 107.297 14.2266 107.598 14.2266C107.895 14.2266 108.154 14.166 108.377 14.0449C108.604 13.9199 108.791 13.75 108.939 13.5352C109.088 13.3203 109.199 13.0742 109.273 12.7969C109.352 12.5156 109.391 12.2168 109.391 11.9004V11.7656C109.391 11.4531 109.352 11.1582 109.273 10.8809C109.199 10.5996 109.086 10.3516 108.934 10.1367C108.785 9.91797 108.598 9.74609 108.371 9.62109C108.148 9.49609 107.887 9.43359 107.586 9.43359C107.289 9.43359 107.027 9.49609 106.801 9.62109C106.578 9.74609 106.391 9.91797 106.238 10.1367C106.09 10.3516 105.979 10.5996 105.904 10.8809C105.83 11.1582 105.793 11.4531 105.793 11.7656ZM112.924 10.0137V15H111.84V8.66016H112.865L112.924 10.0137ZM112.666 11.5898L112.215 11.5723C112.219 11.1387 112.283 10.7383 112.408 10.3711C112.533 10 112.709 9.67773 112.936 9.4043C113.162 9.13086 113.432 8.91992 113.744 8.77148C114.061 8.61914 114.41 8.54297 114.793 8.54297C115.105 8.54297 115.387 8.58594 115.637 8.67188C115.887 8.75391 116.1 8.88672 116.275 9.07031C116.455 9.25391 116.592 9.49219 116.686 9.78516C116.779 10.0742 116.826 10.4277 116.826 10.8457V15H115.736V10.834C115.736 10.502 115.688 10.2363 115.59 10.0371C115.492 9.83398 115.35 9.6875 115.162 9.59766C114.975 9.50391 114.744 9.45703 114.471 9.45703C114.201 9.45703 113.955 9.51367 113.732 9.62695C113.514 9.74023 113.324 9.89648 113.164 10.0957C113.008 10.2949 112.885 10.5234 112.795 10.7812C112.709 11.0352 112.666 11.3047 112.666 11.5898Z" fill="#E92841"/>
</svg>
