<svg width="131" height="24" viewBox="0 0 131 24" fill="none" xmlns="http://www.w3.org/2000/svg">
<rect width="131" height="24" rx="12" fill="#FDF2F2"/>
<path d="M21.25 8.25L13.75 15.75M13.75 8.25L21.25 15.75" stroke="#EB5757" stroke-width="1.6" stroke-linecap="round" stroke-linejoin="round"/>
<path d="M38.2246 7.04688V17H36.8984L31.8877 9.32324V17H30.5684V7.04688H31.8877L36.9189 14.7441V7.04688H38.2246ZM40.0361 13.3838V13.2266C40.0361 12.6934 40.1136 12.1989 40.2686 11.7432C40.4235 11.2829 40.6468 10.8841 40.9385 10.5469C41.2301 10.2051 41.5833 9.94076 41.998 9.75391C42.4128 9.5625 42.8776 9.4668 43.3926 9.4668C43.9121 9.4668 44.3792 9.5625 44.7939 9.75391C45.2132 9.94076 45.5687 10.2051 45.8604 10.5469C46.1566 10.8841 46.3822 11.2829 46.5371 11.7432C46.6921 12.1989 46.7695 12.6934 46.7695 13.2266V13.3838C46.7695 13.917 46.6921 14.4115 46.5371 14.8672C46.3822 15.3229 46.1566 15.7217 45.8604 16.0635C45.5687 16.4007 45.2155 16.665 44.8008 16.8564C44.3906 17.0433 43.9258 17.1367 43.4062 17.1367C42.8867 17.1367 42.4196 17.0433 42.0049 16.8564C41.5902 16.665 41.2347 16.4007 40.9385 16.0635C40.6468 15.7217 40.4235 15.3229 40.2686 14.8672C40.1136 14.4115 40.0361 13.917 40.0361 13.3838ZM41.3008 13.2266V13.3838C41.3008 13.7529 41.3441 14.1016 41.4307 14.4297C41.5173 14.7533 41.6471 15.0404 41.8203 15.291C41.998 15.5417 42.2191 15.7399 42.4834 15.8857C42.7477 16.027 43.0553 16.0977 43.4062 16.0977C43.7526 16.0977 44.0557 16.027 44.3154 15.8857C44.5798 15.7399 44.7985 15.5417 44.9717 15.291C45.1449 15.0404 45.2747 14.7533 45.3613 14.4297C45.4525 14.1016 45.498 13.7529 45.498 13.3838V13.2266C45.498 12.862 45.4525 12.5179 45.3613 12.1943C45.2747 11.8662 45.1426 11.5768 44.9648 11.3262C44.7917 11.071 44.5729 10.8704 44.3086 10.7246C44.0488 10.5788 43.7435 10.5059 43.3926 10.5059C43.0462 10.5059 42.7409 10.5788 42.4766 10.7246C42.2168 10.8704 41.998 11.071 41.8203 11.3262C41.6471 11.5768 41.5173 11.8662 41.4307 12.1943C41.3441 12.5179 41.3008 12.862 41.3008 13.2266ZM49.6201 11.1826V17H48.3555V9.60352H49.5518L49.6201 11.1826ZM49.3193 13.0215L48.793 13.001C48.7975 12.4951 48.8727 12.028 49.0186 11.5996C49.1644 11.1667 49.3695 10.7907 49.6338 10.4717C49.8981 10.1527 50.2126 9.90658 50.5771 9.7334C50.9463 9.55566 51.3542 9.4668 51.8008 9.4668C52.1654 9.4668 52.4935 9.51693 52.7852 9.61719C53.0768 9.71289 53.3252 9.86784 53.5303 10.082C53.7399 10.2962 53.8994 10.5742 54.0088 10.916C54.1182 11.2533 54.1729 11.6657 54.1729 12.1533V17H52.9014V12.1396C52.9014 11.7523 52.8444 11.4424 52.7305 11.21C52.6165 10.973 52.4502 10.8021 52.2314 10.6973C52.0127 10.5879 51.7438 10.5332 51.4248 10.5332C51.1104 10.5332 50.8232 10.5993 50.5635 10.7314C50.3083 10.8636 50.0872 11.0459 49.9004 11.2783C49.7181 11.5107 49.5745 11.7773 49.4697 12.0781C49.3695 12.3743 49.3193 12.6888 49.3193 13.0215ZM65.7666 13.835H67.0791C67.0107 14.4639 66.8307 15.0267 66.5391 15.5234C66.2474 16.0202 65.835 16.4144 65.3018 16.7061C64.7686 16.9932 64.1032 17.1367 63.3057 17.1367C62.7223 17.1367 62.1914 17.0273 61.7129 16.8086C61.2389 16.5898 60.8311 16.2799 60.4893 15.8789C60.1475 15.4733 59.8831 14.988 59.6963 14.4229C59.514 13.8532 59.4229 13.2197 59.4229 12.5225V11.5312C59.4229 10.834 59.514 10.2028 59.6963 9.6377C59.8831 9.06803 60.1497 8.5804 60.4961 8.1748C60.847 7.76921 61.2686 7.45703 61.7607 7.23828C62.2529 7.01953 62.8066 6.91016 63.4219 6.91016C64.1738 6.91016 64.8096 7.05143 65.3291 7.33398C65.8486 7.61654 66.252 8.00846 66.5391 8.50977C66.8307 9.00651 67.0107 9.58301 67.0791 10.2393H65.7666C65.7028 9.77441 65.5843 9.37565 65.4111 9.04297C65.238 8.70573 64.9919 8.44596 64.6729 8.26367C64.3538 8.08138 63.9368 7.99023 63.4219 7.99023C62.9798 7.99023 62.5902 8.07454 62.2529 8.24316C61.9202 8.41178 61.64 8.65104 61.4121 8.96094C61.1888 9.27083 61.0202 9.64225 60.9062 10.0752C60.7923 10.5081 60.7354 10.9889 60.7354 11.5176V12.5225C60.7354 13.0101 60.7855 13.4681 60.8857 13.8965C60.9906 14.3249 61.1478 14.7008 61.3574 15.0244C61.5671 15.348 61.8337 15.6032 62.1572 15.79C62.4808 15.9723 62.8636 16.0635 63.3057 16.0635C63.8662 16.0635 64.3128 15.9746 64.6455 15.7969C64.9782 15.6191 65.2288 15.3639 65.3975 15.0312C65.5706 14.6986 65.6937 14.2998 65.7666 13.835ZM68.3506 13.3838V13.2266C68.3506 12.6934 68.4281 12.1989 68.583 11.7432C68.738 11.2829 68.9613 10.8841 69.2529 10.5469C69.5446 10.2051 69.8978 9.94076 70.3125 9.75391C70.7272 9.5625 71.1921 9.4668 71.707 9.4668C72.2266 9.4668 72.6937 9.5625 73.1084 9.75391C73.5277 9.94076 73.8831 10.2051 74.1748 10.5469C74.471 10.8841 74.6966 11.2829 74.8516 11.7432C75.0065 12.1989 75.084 12.6934 75.084 13.2266V13.3838C75.084 13.917 75.0065 14.4115 74.8516 14.8672C74.6966 15.3229 74.471 15.7217 74.1748 16.0635C73.8831 16.4007 73.5299 16.665 73.1152 16.8564C72.7051 17.0433 72.2402 17.1367 71.7207 17.1367C71.2012 17.1367 70.734 17.0433 70.3193 16.8564C69.9046 16.665 69.5492 16.4007 69.2529 16.0635C68.9613 15.7217 68.738 15.3229 68.583 14.8672C68.4281 14.4115 68.3506 13.917 68.3506 13.3838ZM69.6152 13.2266V13.3838C69.6152 13.7529 69.6585 14.1016 69.7451 14.4297C69.8317 14.7533 69.9616 15.0404 70.1348 15.291C70.3125 15.5417 70.5335 15.7399 70.7979 15.8857C71.0622 16.027 71.3698 16.0977 71.7207 16.0977C72.0671 16.0977 72.3701 16.027 72.6299 15.8857C72.8942 15.7399 73.113 15.5417 73.2861 15.291C73.4593 15.0404 73.5892 14.7533 73.6758 14.4297C73.7669 14.1016 73.8125 13.7529 73.8125 13.3838V13.2266C73.8125 12.862 73.7669 12.5179 73.6758 12.1943C73.5892 11.8662 73.457 11.5768 73.2793 11.3262C73.1061 11.071 72.8874 10.8704 72.623 10.7246C72.3633 10.5788 72.0579 10.5059 71.707 10.5059C71.3607 10.5059 71.0553 10.5788 70.791 10.7246C70.5312 10.8704 70.3125 11.071 70.1348 11.3262C69.9616 11.5768 69.8317 11.8662 69.7451 12.1943C69.6585 12.5179 69.6152 12.862 69.6152 13.2266ZM77.9277 11.0732V17H76.6562V9.60352H77.8594L77.9277 11.0732ZM77.668 13.0215L77.0801 13.001C77.0846 12.4951 77.1507 12.028 77.2783 11.5996C77.4059 11.1667 77.5951 10.7907 77.8457 10.4717C78.0964 10.1527 78.4085 9.90658 78.7822 9.7334C79.1559 9.55566 79.5889 9.4668 80.0811 9.4668C80.4274 9.4668 80.7464 9.51693 81.0381 9.61719C81.3298 9.71289 81.5827 9.86556 81.7969 10.0752C82.0111 10.2848 82.1774 10.5537 82.2959 10.8818C82.4144 11.21 82.4736 11.6064 82.4736 12.0713V17H81.209V12.1328C81.209 11.7454 81.1429 11.4355 81.0107 11.2031C80.8831 10.9707 80.7008 10.8021 80.4639 10.6973C80.2269 10.5879 79.9489 10.5332 79.6299 10.5332C79.2562 10.5332 78.944 10.5993 78.6934 10.7314C78.4427 10.8636 78.2422 11.0459 78.0918 11.2783C77.9414 11.5107 77.832 11.7773 77.7637 12.0781C77.6999 12.3743 77.668 12.6888 77.668 13.0215ZM82.46 12.3242L81.6123 12.584C81.6169 12.1784 81.6829 11.7887 81.8105 11.415C81.9427 11.0413 82.1318 10.7087 82.3779 10.417C82.6286 10.1253 82.9362 9.89518 83.3008 9.72656C83.6654 9.55339 84.0824 9.4668 84.5518 9.4668C84.9482 9.4668 85.2992 9.51921 85.6045 9.62402C85.9144 9.72884 86.1742 9.89062 86.3838 10.1094C86.598 10.3236 86.7598 10.5993 86.8691 10.9365C86.9785 11.2738 87.0332 11.6748 87.0332 12.1396V17H85.7617V12.126C85.7617 11.7113 85.6956 11.39 85.5635 11.1621C85.4359 10.9297 85.2536 10.7679 85.0166 10.6768C84.7842 10.5811 84.5062 10.5332 84.1826 10.5332C83.9046 10.5332 83.6585 10.5811 83.4443 10.6768C83.2301 10.7725 83.0501 10.9046 82.9043 11.0732C82.7585 11.2373 82.6468 11.4264 82.5693 11.6406C82.4964 11.8548 82.46 12.0827 82.46 12.3242ZM90.2119 11.0254V19.8438H88.9404V9.60352H90.1025L90.2119 11.0254ZM95.1953 13.2402V13.3838C95.1953 13.9215 95.1315 14.4206 95.0039 14.8809C94.8763 15.3366 94.6895 15.7331 94.4434 16.0703C94.2018 16.4076 93.9033 16.6696 93.5479 16.8564C93.1924 17.0433 92.7845 17.1367 92.3242 17.1367C91.8548 17.1367 91.4401 17.0592 91.0801 16.9043C90.7201 16.7493 90.4147 16.5238 90.1641 16.2275C89.9134 15.9313 89.7129 15.5758 89.5625 15.1611C89.4167 14.7464 89.3164 14.2793 89.2617 13.7598V12.9941C89.3164 12.4473 89.4189 11.9574 89.5693 11.5244C89.7197 11.0915 89.918 10.7223 90.1641 10.417C90.4147 10.1071 90.7178 9.8724 91.0732 9.71289C91.4287 9.54883 91.8389 9.4668 92.3037 9.4668C92.7686 9.4668 93.181 9.55794 93.541 9.74023C93.901 9.91797 94.2041 10.1732 94.4502 10.5059C94.6963 10.8385 94.8809 11.2373 95.0039 11.7021C95.1315 12.1624 95.1953 12.6751 95.1953 13.2402ZM93.9238 13.3838V13.2402C93.9238 12.8711 93.8851 12.5247 93.8076 12.2012C93.7301 11.873 93.6094 11.5859 93.4453 11.3398C93.2858 11.0892 93.0807 10.8932 92.8301 10.752C92.5794 10.6061 92.2809 10.5332 91.9346 10.5332C91.6156 10.5332 91.3376 10.5879 91.1006 10.6973C90.8682 10.8066 90.6699 10.9548 90.5059 11.1416C90.3418 11.3239 90.2074 11.5335 90.1025 11.7705C90.0023 12.0029 89.9271 12.2445 89.877 12.4951V14.2656C89.9681 14.5846 90.0957 14.8854 90.2598 15.168C90.4238 15.446 90.6426 15.6715 90.916 15.8447C91.1895 16.0133 91.5335 16.0977 91.9482 16.0977C92.29 16.0977 92.584 16.027 92.8301 15.8857C93.0807 15.7399 93.2858 15.5417 93.4453 15.291C93.6094 15.0404 93.7301 14.7533 93.8076 14.4297C93.8851 14.1016 93.9238 13.7529 93.9238 13.3838ZM98.1826 6.5V17H96.9111V6.5H98.1826ZM101.587 9.60352V17H100.315V9.60352H101.587ZM100.22 7.6416C100.22 7.43652 100.281 7.26335 100.404 7.12207C100.532 6.98079 100.719 6.91016 100.965 6.91016C101.206 6.91016 101.391 6.98079 101.519 7.12207C101.651 7.26335 101.717 7.43652 101.717 7.6416C101.717 7.83757 101.651 8.00618 101.519 8.14746C101.391 8.28418 101.206 8.35254 100.965 8.35254C100.719 8.35254 100.532 8.28418 100.404 8.14746C100.281 8.00618 100.22 7.83757 100.22 7.6416ZM107.979 15.7354V11.9277C107.979 11.6361 107.919 11.3831 107.801 11.1689C107.687 10.9502 107.514 10.7816 107.281 10.6631C107.049 10.5446 106.762 10.4854 106.42 10.4854C106.101 10.4854 105.821 10.54 105.579 10.6494C105.342 10.7588 105.155 10.9023 105.019 11.0801C104.886 11.2578 104.82 11.4492 104.82 11.6543H103.556C103.556 11.39 103.624 11.1279 103.761 10.8682C103.897 10.6084 104.093 10.3737 104.349 10.1641C104.608 9.94987 104.918 9.78125 105.278 9.6582C105.643 9.5306 106.049 9.4668 106.495 9.4668C107.033 9.4668 107.507 9.55794 107.917 9.74023C108.332 9.92253 108.655 10.1982 108.888 10.5674C109.125 10.932 109.243 11.39 109.243 11.9414V15.3867C109.243 15.6328 109.264 15.8949 109.305 16.1729C109.35 16.4508 109.416 16.6901 109.503 16.8906V17H108.184C108.12 16.8542 108.07 16.6605 108.033 16.4189C107.997 16.1729 107.979 15.945 107.979 15.7354ZM108.197 12.5156L108.211 13.4043H106.933C106.573 13.4043 106.251 13.4339 105.969 13.4932C105.686 13.5479 105.449 13.6322 105.258 13.7461C105.066 13.86 104.921 14.0036 104.82 14.1768C104.72 14.3454 104.67 14.5436 104.67 14.7715C104.67 15.0039 104.722 15.2158 104.827 15.4072C104.932 15.5986 105.089 15.7513 105.299 15.8652C105.513 15.9746 105.775 16.0293 106.085 16.0293C106.472 16.0293 106.814 15.9473 107.11 15.7832C107.407 15.6191 107.641 15.4186 107.814 15.1816C107.992 14.9447 108.088 14.7145 108.102 14.4912L108.642 15.0996C108.61 15.291 108.523 15.5029 108.382 15.7354C108.241 15.9678 108.051 16.1911 107.814 16.4053C107.582 16.6149 107.304 16.7904 106.98 16.9316C106.661 17.0684 106.301 17.1367 105.9 17.1367C105.399 17.1367 104.959 17.0387 104.581 16.8428C104.207 16.6468 103.916 16.3848 103.706 16.0566C103.501 15.724 103.398 15.3525 103.398 14.9424C103.398 14.5459 103.476 14.1973 103.631 13.8965C103.786 13.5911 104.009 13.3382 104.301 13.1377C104.592 12.9326 104.943 12.7777 105.354 12.6729C105.764 12.568 106.222 12.5156 106.728 12.5156H108.197ZM112.497 11.1826V17H111.232V9.60352H112.429L112.497 11.1826ZM112.196 13.0215L111.67 13.001C111.674 12.4951 111.75 12.028 111.896 11.5996C112.041 11.1667 112.246 10.7907 112.511 10.4717C112.775 10.1527 113.09 9.90658 113.454 9.7334C113.823 9.55566 114.231 9.4668 114.678 9.4668C115.042 9.4668 115.37 9.51693 115.662 9.61719C115.954 9.71289 116.202 9.86784 116.407 10.082C116.617 10.2962 116.776 10.5742 116.886 10.916C116.995 11.2533 117.05 11.6657 117.05 12.1533V17H115.778V12.1396C115.778 11.7523 115.721 11.4424 115.607 11.21C115.493 10.973 115.327 10.8021 115.108 10.6973C114.89 10.5879 114.621 10.5332 114.302 10.5332C113.987 10.5332 113.7 10.5993 113.44 10.7314C113.185 10.8636 112.964 11.0459 112.777 11.2783C112.595 11.5107 112.451 11.7773 112.347 12.0781C112.246 12.3743 112.196 12.6888 112.196 13.0215ZM122.067 9.60352V10.5742H118.068V9.60352H122.067ZM119.422 7.80566H120.687V15.168C120.687 15.4186 120.725 15.6077 120.803 15.7354C120.88 15.863 120.98 15.9473 121.104 15.9883C121.227 16.0293 121.359 16.0498 121.5 16.0498C121.605 16.0498 121.714 16.0407 121.828 16.0225C121.947 15.9997 122.035 15.9814 122.095 15.9678L122.102 17C122.001 17.0319 121.869 17.0615 121.705 17.0889C121.546 17.1208 121.352 17.1367 121.124 17.1367C120.814 17.1367 120.529 17.0752 120.27 16.9521C120.01 16.8291 119.802 16.624 119.647 16.3369C119.497 16.0452 119.422 15.6533 119.422 15.1611V7.80566Z" fill="#EB5757"/>
</svg>
