<svg width="121" height="24" viewBox="0 0 121 24" fill="none" xmlns="http://www.w3.org/2000/svg">
<rect width="121" height="24" rx="12" fill="#EADCFD"/>
<path d="M10.9004 7.92871L7.60547 17H6.25879L10.0527 7.04688H10.9209L10.9004 7.92871ZM13.6621 17L10.3604 7.92871L10.3398 7.04688H11.208L15.0156 17H13.6621ZM13.4912 13.3154V14.3955H7.89941V13.3154H13.4912ZM20.8193 15.5645V6.5H22.0908V17H20.9287L20.8193 15.5645ZM15.8428 13.3838V13.2402C15.8428 12.6751 15.9111 12.1624 16.0479 11.7021C16.1891 11.2373 16.3874 10.8385 16.6426 10.5059C16.9023 10.1732 17.21 9.91797 17.5654 9.74023C17.9255 9.55794 18.3265 9.4668 18.7686 9.4668C19.2334 9.4668 19.639 9.54883 19.9854 9.71289C20.3363 9.8724 20.6325 10.1071 20.874 10.417C21.1201 10.7223 21.3138 11.0915 21.4551 11.5244C21.5964 11.9574 21.6943 12.4473 21.749 12.9941V13.623C21.6989 14.1654 21.6009 14.653 21.4551 15.0859C21.3138 15.5189 21.1201 15.888 20.874 16.1934C20.6325 16.4987 20.3363 16.7334 19.9854 16.8975C19.6344 17.057 19.2243 17.1367 18.7549 17.1367C18.3219 17.1367 17.9255 17.0433 17.5654 16.8564C17.21 16.6696 16.9023 16.4076 16.6426 16.0703C16.3874 15.7331 16.1891 15.3366 16.0479 14.8809C15.9111 14.4206 15.8428 13.9215 15.8428 13.3838ZM17.1143 13.2402V13.3838C17.1143 13.7529 17.1507 14.0993 17.2236 14.4229C17.3011 14.7464 17.4196 15.0312 17.5791 15.2773C17.7386 15.5234 17.9414 15.7171 18.1875 15.8584C18.4336 15.9951 18.7275 16.0635 19.0693 16.0635C19.4886 16.0635 19.8327 15.9746 20.1016 15.7969C20.375 15.6191 20.5938 15.3844 20.7578 15.0928C20.9219 14.8011 21.0495 14.4844 21.1406 14.1426V12.4951C21.0859 12.2445 21.0062 12.0029 20.9014 11.7705C20.8011 11.5335 20.6689 11.3239 20.5049 11.1416C20.3454 10.9548 20.1471 10.8066 19.9102 10.6973C19.6777 10.5879 19.402 10.5332 19.083 10.5332C18.7367 10.5332 18.4382 10.6061 18.1875 10.752C17.9414 10.8932 17.7386 11.0892 17.5791 11.3398C17.4196 11.5859 17.3011 11.873 17.2236 12.2012C17.1507 12.5247 17.1143 12.8711 17.1143 13.2402ZM28.4209 15.7354V11.9277C28.4209 11.6361 28.3617 11.3831 28.2432 11.1689C28.1292 10.9502 27.9561 10.7816 27.7236 10.6631C27.4912 10.5446 27.2041 10.4854 26.8623 10.4854C26.5433 10.4854 26.263 10.54 26.0215 10.6494C25.7845 10.7588 25.5977 10.9023 25.4609 11.0801C25.3288 11.2578 25.2627 11.4492 25.2627 11.6543H23.998C23.998 11.39 24.0664 11.1279 24.2031 10.8682C24.3398 10.6084 24.5358 10.3737 24.791 10.1641C25.0508 9.94987 25.3607 9.78125 25.7207 9.6582C26.0853 9.5306 26.4909 9.4668 26.9375 9.4668C27.4753 9.4668 27.9492 9.55794 28.3594 9.74023C28.7741 9.92253 29.0977 10.1982 29.3301 10.5674C29.5671 10.932 29.6855 11.39 29.6855 11.9414V15.3867C29.6855 15.6328 29.7061 15.8949 29.7471 16.1729C29.7926 16.4508 29.8587 16.6901 29.9453 16.8906V17H28.626C28.5622 16.8542 28.512 16.6605 28.4756 16.4189C28.4391 16.1729 28.4209 15.945 28.4209 15.7354ZM28.6396 12.5156L28.6533 13.4043H27.375C27.015 13.4043 26.6937 13.4339 26.4111 13.4932C26.1286 13.5479 25.8916 13.6322 25.7002 13.7461C25.5088 13.86 25.363 14.0036 25.2627 14.1768C25.1624 14.3454 25.1123 14.5436 25.1123 14.7715C25.1123 15.0039 25.1647 15.2158 25.2695 15.4072C25.3743 15.5986 25.5316 15.7513 25.7412 15.8652C25.9554 15.9746 26.2174 16.0293 26.5273 16.0293C26.9147 16.0293 27.2565 15.9473 27.5527 15.7832C27.849 15.6191 28.0837 15.4186 28.2568 15.1816C28.4346 14.9447 28.5303 14.7145 28.5439 14.4912L29.084 15.0996C29.0521 15.291 28.9655 15.5029 28.8242 15.7354C28.6829 15.9678 28.4938 16.1911 28.2568 16.4053C28.0244 16.6149 27.7464 16.7904 27.4229 16.9316C27.1038 17.0684 26.7438 17.1367 26.3428 17.1367C25.8415 17.1367 25.4017 17.0387 25.0234 16.8428C24.6497 16.6468 24.3581 16.3848 24.1484 16.0566C23.9434 15.724 23.8408 15.3525 23.8408 14.9424C23.8408 14.5459 23.9183 14.1973 24.0732 13.8965C24.2282 13.5911 24.4515 13.3382 24.7432 13.1377C25.0348 12.9326 25.3857 12.7777 25.7959 12.6729C26.2061 12.568 26.6641 12.5156 27.1699 12.5156H28.6396ZM32.9326 11.0732V17H31.6611V9.60352H32.8643L32.9326 11.0732ZM32.6729 13.0215L32.085 13.001C32.0895 12.4951 32.1556 12.028 32.2832 11.5996C32.4108 11.1667 32.5999 10.7907 32.8506 10.4717C33.1012 10.1527 33.4134 9.90658 33.7871 9.7334C34.1608 9.55566 34.5938 9.4668 35.0859 9.4668C35.4323 9.4668 35.7513 9.51693 36.043 9.61719C36.3346 9.71289 36.5876 9.86556 36.8018 10.0752C37.016 10.2848 37.1823 10.5537 37.3008 10.8818C37.4193 11.21 37.4785 11.6064 37.4785 12.0713V17H36.2139V12.1328C36.2139 11.7454 36.1478 11.4355 36.0156 11.2031C35.888 10.9707 35.7057 10.8021 35.4688 10.6973C35.2318 10.5879 34.9538 10.5332 34.6348 10.5332C34.2611 10.5332 33.9489 10.5993 33.6982 10.7314C33.4476 10.8636 33.2471 11.0459 33.0967 11.2783C32.9463 11.5107 32.8369 11.7773 32.7686 12.0781C32.7048 12.3743 32.6729 12.6888 32.6729 13.0215ZM37.4648 12.3242L36.6172 12.584C36.6217 12.1784 36.6878 11.7887 36.8154 11.415C36.9476 11.0413 37.1367 10.7087 37.3828 10.417C37.6335 10.1253 37.9411 9.89518 38.3057 9.72656C38.6702 9.55339 39.0872 9.4668 39.5566 9.4668C39.9531 9.4668 40.304 9.51921 40.6094 9.62402C40.9193 9.72884 41.179 9.89062 41.3887 10.1094C41.6029 10.3236 41.7646 10.5993 41.874 10.9365C41.9834 11.2738 42.0381 11.6748 42.0381 12.1396V17H40.7666V12.126C40.7666 11.7113 40.7005 11.39 40.5684 11.1621C40.4408 10.9297 40.2585 10.7679 40.0215 10.6768C39.7891 10.5811 39.5111 10.5332 39.1875 10.5332C38.9095 10.5332 38.6634 10.5811 38.4492 10.6768C38.235 10.7725 38.055 10.9046 37.9092 11.0732C37.7633 11.2373 37.6517 11.4264 37.5742 11.6406C37.5013 11.8548 37.4648 12.0827 37.4648 12.3242ZM48.3135 15.7354V11.9277C48.3135 11.6361 48.2542 11.3831 48.1357 11.1689C48.0218 10.9502 47.8486 10.7816 47.6162 10.6631C47.3838 10.5446 47.0967 10.4854 46.7549 10.4854C46.4359 10.4854 46.1556 10.54 45.9141 10.6494C45.6771 10.7588 45.4902 10.9023 45.3535 11.0801C45.2214 11.2578 45.1553 11.4492 45.1553 11.6543H43.8906C43.8906 11.39 43.959 11.1279 44.0957 10.8682C44.2324 10.6084 44.4284 10.3737 44.6836 10.1641C44.9434 9.94987 45.2533 9.78125 45.6133 9.6582C45.9779 9.5306 46.3835 9.4668 46.8301 9.4668C47.3678 9.4668 47.8418 9.55794 48.252 9.74023C48.6667 9.92253 48.9902 10.1982 49.2227 10.5674C49.4596 10.932 49.5781 11.39 49.5781 11.9414V15.3867C49.5781 15.6328 49.5986 15.8949 49.6396 16.1729C49.6852 16.4508 49.7513 16.6901 49.8379 16.8906V17H48.5186C48.4548 16.8542 48.4046 16.6605 48.3682 16.4189C48.3317 16.1729 48.3135 15.945 48.3135 15.7354ZM48.5322 12.5156L48.5459 13.4043H47.2676C46.9076 13.4043 46.5863 13.4339 46.3037 13.4932C46.0212 13.5479 45.7842 13.6322 45.5928 13.7461C45.4014 13.86 45.2555 14.0036 45.1553 14.1768C45.055 14.3454 45.0049 14.5436 45.0049 14.7715C45.0049 15.0039 45.0573 15.2158 45.1621 15.4072C45.2669 15.5986 45.4242 15.7513 45.6338 15.8652C45.848 15.9746 46.11 16.0293 46.4199 16.0293C46.8073 16.0293 47.1491 15.9473 47.4453 15.7832C47.7415 15.6191 47.9762 15.4186 48.1494 15.1816C48.3271 14.9447 48.4229 14.7145 48.4365 14.4912L48.9766 15.0996C48.9447 15.291 48.8581 15.5029 48.7168 15.7354C48.5755 15.9678 48.3864 16.1911 48.1494 16.4053C47.917 16.6149 47.639 16.7904 47.3154 16.9316C46.9964 17.0684 46.6364 17.1367 46.2354 17.1367C45.734 17.1367 45.2943 17.0387 44.916 16.8428C44.5423 16.6468 44.2507 16.3848 44.041 16.0566C43.8359 15.724 43.7334 15.3525 43.7334 14.9424C43.7334 14.5459 43.8109 14.1973 43.9658 13.8965C44.1208 13.5911 44.3441 13.3382 44.6357 13.1377C44.9274 12.9326 45.2783 12.7777 45.6885 12.6729C46.0986 12.568 46.5566 12.5156 47.0625 12.5156H48.5322ZM52.832 11.1826V17H51.5674V9.60352H52.7637L52.832 11.1826ZM52.5312 13.0215L52.0049 13.001C52.0094 12.4951 52.0846 12.028 52.2305 11.5996C52.3763 11.1667 52.5814 10.7907 52.8457 10.4717C53.11 10.1527 53.4245 9.90658 53.7891 9.7334C54.1582 9.55566 54.5661 9.4668 55.0127 9.4668C55.3773 9.4668 55.7054 9.51693 55.9971 9.61719C56.2887 9.71289 56.5371 9.86784 56.7422 10.082C56.9518 10.2962 57.1113 10.5742 57.2207 10.916C57.3301 11.2533 57.3848 11.6657 57.3848 12.1533V17H56.1133V12.1396C56.1133 11.7523 56.0563 11.4424 55.9424 11.21C55.8285 10.973 55.6621 10.8021 55.4434 10.6973C55.2246 10.5879 54.9557 10.5332 54.6367 10.5332C54.3223 10.5332 54.0352 10.5993 53.7754 10.7314C53.5202 10.8636 53.2992 11.0459 53.1123 11.2783C52.93 11.5107 52.7865 11.7773 52.6816 12.0781C52.5814 12.3743 52.5312 12.6888 52.5312 13.0215ZM62.4023 9.60352V10.5742H58.4033V9.60352H62.4023ZM59.7568 7.80566H61.0215V15.168C61.0215 15.4186 61.0602 15.6077 61.1377 15.7354C61.2152 15.863 61.3154 15.9473 61.4385 15.9883C61.5615 16.0293 61.6937 16.0498 61.835 16.0498C61.9398 16.0498 62.0492 16.0407 62.1631 16.0225C62.2816 15.9997 62.3704 15.9814 62.4297 15.9678L62.4365 17C62.3363 17.0319 62.2041 17.0615 62.04 17.0889C61.8805 17.1208 61.6868 17.1367 61.459 17.1367C61.1491 17.1367 60.8643 17.0752 60.6045 16.9521C60.3447 16.8291 60.1374 16.624 59.9824 16.3369C59.832 16.0452 59.7568 15.6533 59.7568 15.1611V7.80566ZM65.2598 9.60352V17H63.9883V9.60352H65.2598ZM63.8926 7.6416C63.8926 7.43652 63.9541 7.26335 64.0771 7.12207C64.2048 6.98079 64.3916 6.91016 64.6377 6.91016C64.8792 6.91016 65.0638 6.98079 65.1914 7.12207C65.3236 7.26335 65.3896 7.43652 65.3896 7.6416C65.3896 7.83757 65.3236 8.00618 65.1914 8.14746C65.0638 8.28418 64.8792 8.35254 64.6377 8.35254C64.3916 8.35254 64.2048 8.28418 64.0771 8.14746C63.9541 8.00618 63.8926 7.83757 63.8926 7.6416ZM71.6514 15.7354V11.9277C71.6514 11.6361 71.5921 11.3831 71.4736 11.1689C71.3597 10.9502 71.1865 10.7816 70.9541 10.6631C70.7217 10.5446 70.4346 10.4854 70.0928 10.4854C69.7738 10.4854 69.4935 10.54 69.252 10.6494C69.015 10.7588 68.8281 10.9023 68.6914 11.0801C68.5592 11.2578 68.4932 11.4492 68.4932 11.6543H67.2285C67.2285 11.39 67.2969 11.1279 67.4336 10.8682C67.5703 10.6084 67.7663 10.3737 68.0215 10.1641C68.2812 9.94987 68.5911 9.78125 68.9512 9.6582C69.3158 9.5306 69.7214 9.4668 70.168 9.4668C70.7057 9.4668 71.1797 9.55794 71.5898 9.74023C72.0046 9.92253 72.3281 10.1982 72.5605 10.5674C72.7975 10.932 72.916 11.39 72.916 11.9414V15.3867C72.916 15.6328 72.9365 15.8949 72.9775 16.1729C73.0231 16.4508 73.0892 16.6901 73.1758 16.8906V17H71.8564C71.7926 16.8542 71.7425 16.6605 71.7061 16.4189C71.6696 16.1729 71.6514 15.945 71.6514 15.7354ZM71.8701 12.5156L71.8838 13.4043H70.6055C70.2454 13.4043 69.9242 13.4339 69.6416 13.4932C69.359 13.5479 69.1221 13.6322 68.9307 13.7461C68.7393 13.86 68.5934 14.0036 68.4932 14.1768C68.3929 14.3454 68.3428 14.5436 68.3428 14.7715C68.3428 15.0039 68.3952 15.2158 68.5 15.4072C68.6048 15.5986 68.762 15.7513 68.9717 15.8652C69.1859 15.9746 69.4479 16.0293 69.7578 16.0293C70.1452 16.0293 70.487 15.9473 70.7832 15.7832C71.0794 15.6191 71.3141 15.4186 71.4873 15.1816C71.665 14.9447 71.7607 14.7145 71.7744 14.4912L72.3145 15.0996C72.2826 15.291 72.196 15.5029 72.0547 15.7354C71.9134 15.9678 71.7243 16.1911 71.4873 16.4053C71.2549 16.6149 70.9769 16.7904 70.6533 16.9316C70.3343 17.0684 69.9743 17.1367 69.5732 17.1367C69.0719 17.1367 68.6322 17.0387 68.2539 16.8428C67.8802 16.6468 67.5885 16.3848 67.3789 16.0566C67.1738 15.724 67.0713 15.3525 67.0713 14.9424C67.0713 14.5459 67.1488 14.1973 67.3037 13.8965C67.4587 13.5911 67.682 13.3382 67.9736 13.1377C68.2653 12.9326 68.6162 12.7777 69.0264 12.6729C69.4365 12.568 69.8945 12.5156 70.4004 12.5156H71.8701ZM79.8887 7.04688V17H78.5693V7.04688H79.8887ZM85.8975 7.04688L81.7617 11.6885L79.4375 14.1016L79.2188 12.6934L80.9688 10.7656L84.3115 7.04688H85.8975ZM84.626 17L80.9414 12.1465L81.7275 11.1006L86.1982 17H84.626ZM86.6426 13.3838V13.2266C86.6426 12.6934 86.7201 12.1989 86.875 11.7432C87.0299 11.2829 87.2533 10.8841 87.5449 10.5469C87.8366 10.2051 88.1898 9.94076 88.6045 9.75391C89.0192 9.5625 89.484 9.4668 89.999 9.4668C90.5186 9.4668 90.9857 9.5625 91.4004 9.75391C91.8197 9.94076 92.1751 10.2051 92.4668 10.5469C92.763 10.8841 92.9886 11.2829 93.1436 11.7432C93.2985 12.1989 93.376 12.6934 93.376 13.2266V13.3838C93.376 13.917 93.2985 14.4115 93.1436 14.8672C92.9886 15.3229 92.763 15.7217 92.4668 16.0635C92.1751 16.4007 91.8219 16.665 91.4072 16.8564C90.9971 17.0433 90.5322 17.1367 90.0127 17.1367C89.4932 17.1367 89.026 17.0433 88.6113 16.8564C88.1966 16.665 87.8411 16.4007 87.5449 16.0635C87.2533 15.7217 87.0299 15.3229 86.875 14.8672C86.7201 14.4115 86.6426 13.917 86.6426 13.3838ZM87.9072 13.2266V13.3838C87.9072 13.7529 87.9505 14.1016 88.0371 14.4297C88.1237 14.7533 88.2536 15.0404 88.4268 15.291C88.6045 15.5417 88.8255 15.7399 89.0898 15.8857C89.3542 16.027 89.6618 16.0977 90.0127 16.0977C90.359 16.0977 90.6621 16.027 90.9219 15.8857C91.1862 15.7399 91.4049 15.5417 91.5781 15.291C91.7513 15.0404 91.8812 14.7533 91.9678 14.4297C92.0589 14.1016 92.1045 13.7529 92.1045 13.3838V13.2266C92.1045 12.862 92.0589 12.5179 91.9678 12.1943C91.8812 11.8662 91.749 11.5768 91.5713 11.3262C91.3981 11.071 91.1794 10.8704 90.915 10.7246C90.6553 10.5788 90.3499 10.5059 89.999 10.5059C89.6527 10.5059 89.3473 10.5788 89.083 10.7246C88.8232 10.8704 88.6045 11.071 88.4268 11.3262C88.2536 11.5768 88.1237 11.8662 88.0371 12.1943C87.9505 12.5179 87.9072 12.862 87.9072 13.2266ZM99.4873 15.291V9.60352H100.759V17H99.5488L99.4873 15.291ZM99.7266 13.7324L100.253 13.7188C100.253 14.2109 100.201 14.6667 100.096 15.0859C99.9954 15.5007 99.8314 15.8607 99.6035 16.166C99.3757 16.4714 99.0771 16.7106 98.708 16.8838C98.3389 17.0524 97.89 17.1367 97.3613 17.1367C97.0013 17.1367 96.6709 17.0843 96.3701 16.9795C96.0739 16.8747 95.8187 16.7129 95.6045 16.4941C95.3903 16.2754 95.224 15.9906 95.1055 15.6396C94.9915 15.2887 94.9346 14.8672 94.9346 14.375V9.60352H96.1992V14.3887C96.1992 14.7214 96.2357 14.9971 96.3086 15.2158C96.3861 15.43 96.4886 15.6009 96.6162 15.7285C96.7484 15.8516 96.8942 15.9382 97.0537 15.9883C97.2178 16.0384 97.3864 16.0635 97.5596 16.0635C98.0973 16.0635 98.5234 15.9609 98.8379 15.7559C99.1523 15.5462 99.3779 15.266 99.5146 14.915C99.6559 14.5596 99.7266 14.1654 99.7266 13.7324ZM105.783 9.60352V10.5742H101.784V9.60352H105.783ZM103.138 7.80566H104.402V15.168C104.402 15.4186 104.441 15.6077 104.519 15.7354C104.596 15.863 104.696 15.9473 104.819 15.9883C104.942 16.0293 105.075 16.0498 105.216 16.0498C105.321 16.0498 105.43 16.0407 105.544 16.0225C105.662 15.9997 105.751 15.9814 105.811 15.9678L105.817 17C105.717 17.0319 105.585 17.0615 105.421 17.0889C105.261 17.1208 105.068 17.1367 104.84 17.1367C104.53 17.1367 104.245 17.0752 103.985 16.9521C103.726 16.8291 103.518 16.624 103.363 16.3369C103.213 16.0452 103.138 15.6533 103.138 15.1611V7.80566ZM111.573 15.0381C111.573 14.8558 111.532 14.6872 111.45 14.5322C111.373 14.3727 111.211 14.2292 110.965 14.1016C110.723 13.9694 110.359 13.8555 109.871 13.7598C109.461 13.6732 109.09 13.5706 108.757 13.4521C108.429 13.3337 108.148 13.1901 107.916 13.0215C107.688 12.8529 107.513 12.6546 107.39 12.4268C107.267 12.1989 107.205 11.9323 107.205 11.627C107.205 11.3353 107.269 11.0596 107.396 10.7998C107.529 10.54 107.713 10.3099 107.95 10.1094C108.192 9.90885 108.481 9.75163 108.818 9.6377C109.156 9.52376 109.532 9.4668 109.946 9.4668C110.539 9.4668 111.045 9.57161 111.464 9.78125C111.883 9.99089 112.204 10.2712 112.428 10.6221C112.651 10.9684 112.763 11.3535 112.763 11.7773H111.498C111.498 11.5723 111.437 11.374 111.313 11.1826C111.195 10.9867 111.02 10.8249 110.787 10.6973C110.559 10.5697 110.279 10.5059 109.946 10.5059C109.595 10.5059 109.311 10.5605 109.092 10.6699C108.878 10.7747 108.72 10.9092 108.62 11.0732C108.524 11.2373 108.477 11.4105 108.477 11.5928C108.477 11.7295 108.499 11.8525 108.545 11.9619C108.595 12.0667 108.682 12.1647 108.805 12.2559C108.928 12.3424 109.101 12.4245 109.324 12.502C109.548 12.5794 109.832 12.6569 110.179 12.7344C110.785 12.8711 111.284 13.0352 111.676 13.2266C112.068 13.418 112.359 13.6527 112.551 13.9307C112.742 14.2087 112.838 14.5459 112.838 14.9424C112.838 15.266 112.77 15.5622 112.633 15.8311C112.501 16.0999 112.307 16.3324 112.052 16.5283C111.801 16.7197 111.5 16.8701 111.149 16.9795C110.803 17.0843 110.413 17.1367 109.98 17.1367C109.329 17.1367 108.777 17.0205 108.326 16.7881C107.875 16.5557 107.533 16.2549 107.301 15.8857C107.068 15.5166 106.952 15.127 106.952 14.7168H108.224C108.242 15.0632 108.342 15.3389 108.524 15.5439C108.707 15.7445 108.93 15.888 109.194 15.9746C109.459 16.0566 109.721 16.0977 109.98 16.0977C110.327 16.0977 110.616 16.0521 110.849 15.9609C111.086 15.8698 111.266 15.7445 111.389 15.585C111.512 15.4255 111.573 15.2432 111.573 15.0381ZM115.873 9.60352V17H114.602V9.60352H115.873ZM114.506 7.6416C114.506 7.43652 114.567 7.26335 114.69 7.12207C114.818 6.98079 115.005 6.91016 115.251 6.91016C115.493 6.91016 115.677 6.98079 115.805 7.12207C115.937 7.26335 116.003 7.43652 116.003 7.6416C116.003 7.83757 115.937 8.00618 115.805 8.14746C115.677 8.28418 115.493 8.35254 115.251 8.35254C115.005 8.35254 114.818 8.28418 114.69 8.14746C114.567 8.00618 114.506 7.83757 114.506 7.6416Z" fill="#4F2D7F"/>
<path d="M10.9004 7.92871L7.60547 17H6.25879L10.0527 7.04688H10.9209L10.9004 7.92871ZM13.6621 17L10.3604 7.92871L10.3398 7.04688H11.208L15.0156 17H13.6621ZM13.4912 13.3154V14.3955H7.89941V13.3154H13.4912ZM20.8193 15.5645V6.5H22.0908V17H20.9287L20.8193 15.5645ZM15.8428 13.3838V13.2402C15.8428 12.6751 15.9111 12.1624 16.0479 11.7021C16.1891 11.2373 16.3874 10.8385 16.6426 10.5059C16.9023 10.1732 17.21 9.91797 17.5654 9.74023C17.9255 9.55794 18.3265 9.4668 18.7686 9.4668C19.2334 9.4668 19.639 9.54883 19.9854 9.71289C20.3363 9.8724 20.6325 10.1071 20.874 10.417C21.1201 10.7223 21.3138 11.0915 21.4551 11.5244C21.5964 11.9574 21.6943 12.4473 21.749 12.9941V13.623C21.6989 14.1654 21.6009 14.653 21.4551 15.0859C21.3138 15.5189 21.1201 15.888 20.874 16.1934C20.6325 16.4987 20.3363 16.7334 19.9854 16.8975C19.6344 17.057 19.2243 17.1367 18.7549 17.1367C18.3219 17.1367 17.9255 17.0433 17.5654 16.8564C17.21 16.6696 16.9023 16.4076 16.6426 16.0703C16.3874 15.7331 16.1891 15.3366 16.0479 14.8809C15.9111 14.4206 15.8428 13.9215 15.8428 13.3838ZM17.1143 13.2402V13.3838C17.1143 13.7529 17.1507 14.0993 17.2236 14.4229C17.3011 14.7464 17.4196 15.0312 17.5791 15.2773C17.7386 15.5234 17.9414 15.7171 18.1875 15.8584C18.4336 15.9951 18.7275 16.0635 19.0693 16.0635C19.4886 16.0635 19.8327 15.9746 20.1016 15.7969C20.375 15.6191 20.5938 15.3844 20.7578 15.0928C20.9219 14.8011 21.0495 14.4844 21.1406 14.1426V12.4951C21.0859 12.2445 21.0062 12.0029 20.9014 11.7705C20.8011 11.5335 20.6689 11.3239 20.5049 11.1416C20.3454 10.9548 20.1471 10.8066 19.9102 10.6973C19.6777 10.5879 19.402 10.5332 19.083 10.5332C18.7367 10.5332 18.4382 10.6061 18.1875 10.752C17.9414 10.8932 17.7386 11.0892 17.5791 11.3398C17.4196 11.5859 17.3011 11.873 17.2236 12.2012C17.1507 12.5247 17.1143 12.8711 17.1143 13.2402ZM28.4209 15.7354V11.9277C28.4209 11.6361 28.3617 11.3831 28.2432 11.1689C28.1292 10.9502 27.9561 10.7816 27.7236 10.6631C27.4912 10.5446 27.2041 10.4854 26.8623 10.4854C26.5433 10.4854 26.263 10.54 26.0215 10.6494C25.7845 10.7588 25.5977 10.9023 25.4609 11.0801C25.3288 11.2578 25.2627 11.4492 25.2627 11.6543H23.998C23.998 11.39 24.0664 11.1279 24.2031 10.8682C24.3398 10.6084 24.5358 10.3737 24.791 10.1641C25.0508 9.94987 25.3607 9.78125 25.7207 9.6582C26.0853 9.5306 26.4909 9.4668 26.9375 9.4668C27.4753 9.4668 27.9492 9.55794 28.3594 9.74023C28.7741 9.92253 29.0977 10.1982 29.3301 10.5674C29.5671 10.932 29.6855 11.39 29.6855 11.9414V15.3867C29.6855 15.6328 29.7061 15.8949 29.7471 16.1729C29.7926 16.4508 29.8587 16.6901 29.9453 16.8906V17H28.626C28.5622 16.8542 28.512 16.6605 28.4756 16.4189C28.4391 16.1729 28.4209 15.945 28.4209 15.7354ZM28.6396 12.5156L28.6533 13.4043H27.375C27.015 13.4043 26.6937 13.4339 26.4111 13.4932C26.1286 13.5479 25.8916 13.6322 25.7002 13.7461C25.5088 13.86 25.363 14.0036 25.2627 14.1768C25.1624 14.3454 25.1123 14.5436 25.1123 14.7715C25.1123 15.0039 25.1647 15.2158 25.2695 15.4072C25.3743 15.5986 25.5316 15.7513 25.7412 15.8652C25.9554 15.9746 26.2174 16.0293 26.5273 16.0293C26.9147 16.0293 27.2565 15.9473 27.5527 15.7832C27.849 15.6191 28.0837 15.4186 28.2568 15.1816C28.4346 14.9447 28.5303 14.7145 28.5439 14.4912L29.084 15.0996C29.0521 15.291 28.9655 15.5029 28.8242 15.7354C28.6829 15.9678 28.4938 16.1911 28.2568 16.4053C28.0244 16.6149 27.7464 16.7904 27.4229 16.9316C27.1038 17.0684 26.7438 17.1367 26.3428 17.1367C25.8415 17.1367 25.4017 17.0387 25.0234 16.8428C24.6497 16.6468 24.3581 16.3848 24.1484 16.0566C23.9434 15.724 23.8408 15.3525 23.8408 14.9424C23.8408 14.5459 23.9183 14.1973 24.0732 13.8965C24.2282 13.5911 24.4515 13.3382 24.7432 13.1377C25.0348 12.9326 25.3857 12.7777 25.7959 12.6729C26.2061 12.568 26.6641 12.5156 27.1699 12.5156H28.6396ZM32.9326 11.0732V17H31.6611V9.60352H32.8643L32.9326 11.0732ZM32.6729 13.0215L32.085 13.001C32.0895 12.4951 32.1556 12.028 32.2832 11.5996C32.4108 11.1667 32.5999 10.7907 32.8506 10.4717C33.1012 10.1527 33.4134 9.90658 33.7871 9.7334C34.1608 9.55566 34.5938 9.4668 35.0859 9.4668C35.4323 9.4668 35.7513 9.51693 36.043 9.61719C36.3346 9.71289 36.5876 9.86556 36.8018 10.0752C37.016 10.2848 37.1823 10.5537 37.3008 10.8818C37.4193 11.21 37.4785 11.6064 37.4785 12.0713V17H36.2139V12.1328C36.2139 11.7454 36.1478 11.4355 36.0156 11.2031C35.888 10.9707 35.7057 10.8021 35.4688 10.6973C35.2318 10.5879 34.9538 10.5332 34.6348 10.5332C34.2611 10.5332 33.9489 10.5993 33.6982 10.7314C33.4476 10.8636 33.2471 11.0459 33.0967 11.2783C32.9463 11.5107 32.8369 11.7773 32.7686 12.0781C32.7048 12.3743 32.6729 12.6888 32.6729 13.0215ZM37.4648 12.3242L36.6172 12.584C36.6217 12.1784 36.6878 11.7887 36.8154 11.415C36.9476 11.0413 37.1367 10.7087 37.3828 10.417C37.6335 10.1253 37.9411 9.89518 38.3057 9.72656C38.6702 9.55339 39.0872 9.4668 39.5566 9.4668C39.9531 9.4668 40.304 9.51921 40.6094 9.62402C40.9193 9.72884 41.179 9.89062 41.3887 10.1094C41.6029 10.3236 41.7646 10.5993 41.874 10.9365C41.9834 11.2738 42.0381 11.6748 42.0381 12.1396V17H40.7666V12.126C40.7666 11.7113 40.7005 11.39 40.5684 11.1621C40.4408 10.9297 40.2585 10.7679 40.0215 10.6768C39.7891 10.5811 39.5111 10.5332 39.1875 10.5332C38.9095 10.5332 38.6634 10.5811 38.4492 10.6768C38.235 10.7725 38.055 10.9046 37.9092 11.0732C37.7633 11.2373 37.6517 11.4264 37.5742 11.6406C37.5013 11.8548 37.4648 12.0827 37.4648 12.3242ZM48.3135 15.7354V11.9277C48.3135 11.6361 48.2542 11.3831 48.1357 11.1689C48.0218 10.9502 47.8486 10.7816 47.6162 10.6631C47.3838 10.5446 47.0967 10.4854 46.7549 10.4854C46.4359 10.4854 46.1556 10.54 45.9141 10.6494C45.6771 10.7588 45.4902 10.9023 45.3535 11.0801C45.2214 11.2578 45.1553 11.4492 45.1553 11.6543H43.8906C43.8906 11.39 43.959 11.1279 44.0957 10.8682C44.2324 10.6084 44.4284 10.3737 44.6836 10.1641C44.9434 9.94987 45.2533 9.78125 45.6133 9.6582C45.9779 9.5306 46.3835 9.4668 46.8301 9.4668C47.3678 9.4668 47.8418 9.55794 48.252 9.74023C48.6667 9.92253 48.9902 10.1982 49.2227 10.5674C49.4596 10.932 49.5781 11.39 49.5781 11.9414V15.3867C49.5781 15.6328 49.5986 15.8949 49.6396 16.1729C49.6852 16.4508 49.7513 16.6901 49.8379 16.8906V17H48.5186C48.4548 16.8542 48.4046 16.6605 48.3682 16.4189C48.3317 16.1729 48.3135 15.945 48.3135 15.7354ZM48.5322 12.5156L48.5459 13.4043H47.2676C46.9076 13.4043 46.5863 13.4339 46.3037 13.4932C46.0212 13.5479 45.7842 13.6322 45.5928 13.7461C45.4014 13.86 45.2555 14.0036 45.1553 14.1768C45.055 14.3454 45.0049 14.5436 45.0049 14.7715C45.0049 15.0039 45.0573 15.2158 45.1621 15.4072C45.2669 15.5986 45.4242 15.7513 45.6338 15.8652C45.848 15.9746 46.11 16.0293 46.4199 16.0293C46.8073 16.0293 47.1491 15.9473 47.4453 15.7832C47.7415 15.6191 47.9762 15.4186 48.1494 15.1816C48.3271 14.9447 48.4229 14.7145 48.4365 14.4912L48.9766 15.0996C48.9447 15.291 48.8581 15.5029 48.7168 15.7354C48.5755 15.9678 48.3864 16.1911 48.1494 16.4053C47.917 16.6149 47.639 16.7904 47.3154 16.9316C46.9964 17.0684 46.6364 17.1367 46.2354 17.1367C45.734 17.1367 45.2943 17.0387 44.916 16.8428C44.5423 16.6468 44.2507 16.3848 44.041 16.0566C43.8359 15.724 43.7334 15.3525 43.7334 14.9424C43.7334 14.5459 43.8109 14.1973 43.9658 13.8965C44.1208 13.5911 44.3441 13.3382 44.6357 13.1377C44.9274 12.9326 45.2783 12.7777 45.6885 12.6729C46.0986 12.568 46.5566 12.5156 47.0625 12.5156H48.5322ZM52.832 11.1826V17H51.5674V9.60352H52.7637L52.832 11.1826ZM52.5312 13.0215L52.0049 13.001C52.0094 12.4951 52.0846 12.028 52.2305 11.5996C52.3763 11.1667 52.5814 10.7907 52.8457 10.4717C53.11 10.1527 53.4245 9.90658 53.7891 9.7334C54.1582 9.55566 54.5661 9.4668 55.0127 9.4668C55.3773 9.4668 55.7054 9.51693 55.9971 9.61719C56.2887 9.71289 56.5371 9.86784 56.7422 10.082C56.9518 10.2962 57.1113 10.5742 57.2207 10.916C57.3301 11.2533 57.3848 11.6657 57.3848 12.1533V17H56.1133V12.1396C56.1133 11.7523 56.0563 11.4424 55.9424 11.21C55.8285 10.973 55.6621 10.8021 55.4434 10.6973C55.2246 10.5879 54.9557 10.5332 54.6367 10.5332C54.3223 10.5332 54.0352 10.5993 53.7754 10.7314C53.5202 10.8636 53.2992 11.0459 53.1123 11.2783C52.93 11.5107 52.7865 11.7773 52.6816 12.0781C52.5814 12.3743 52.5312 12.6888 52.5312 13.0215ZM62.4023 9.60352V10.5742H58.4033V9.60352H62.4023ZM59.7568 7.80566H61.0215V15.168C61.0215 15.4186 61.0602 15.6077 61.1377 15.7354C61.2152 15.863 61.3154 15.9473 61.4385 15.9883C61.5615 16.0293 61.6937 16.0498 61.835 16.0498C61.9398 16.0498 62.0492 16.0407 62.1631 16.0225C62.2816 15.9997 62.3704 15.9814 62.4297 15.9678L62.4365 17C62.3363 17.0319 62.2041 17.0615 62.04 17.0889C61.8805 17.1208 61.6868 17.1367 61.459 17.1367C61.1491 17.1367 60.8643 17.0752 60.6045 16.9521C60.3447 16.8291 60.1374 16.624 59.9824 16.3369C59.832 16.0452 59.7568 15.6533 59.7568 15.1611V7.80566ZM65.2598 9.60352V17H63.9883V9.60352H65.2598ZM63.8926 7.6416C63.8926 7.43652 63.9541 7.26335 64.0771 7.12207C64.2048 6.98079 64.3916 6.91016 64.6377 6.91016C64.8792 6.91016 65.0638 6.98079 65.1914 7.12207C65.3236 7.26335 65.3896 7.43652 65.3896 7.6416C65.3896 7.83757 65.3236 8.00618 65.1914 8.14746C65.0638 8.28418 64.8792 8.35254 64.6377 8.35254C64.3916 8.35254 64.2048 8.28418 64.0771 8.14746C63.9541 8.00618 63.8926 7.83757 63.8926 7.6416ZM71.6514 15.7354V11.9277C71.6514 11.6361 71.5921 11.3831 71.4736 11.1689C71.3597 10.9502 71.1865 10.7816 70.9541 10.6631C70.7217 10.5446 70.4346 10.4854 70.0928 10.4854C69.7738 10.4854 69.4935 10.54 69.252 10.6494C69.015 10.7588 68.8281 10.9023 68.6914 11.0801C68.5592 11.2578 68.4932 11.4492 68.4932 11.6543H67.2285C67.2285 11.39 67.2969 11.1279 67.4336 10.8682C67.5703 10.6084 67.7663 10.3737 68.0215 10.1641C68.2812 9.94987 68.5911 9.78125 68.9512 9.6582C69.3158 9.5306 69.7214 9.4668 70.168 9.4668C70.7057 9.4668 71.1797 9.55794 71.5898 9.74023C72.0046 9.92253 72.3281 10.1982 72.5605 10.5674C72.7975 10.932 72.916 11.39 72.916 11.9414V15.3867C72.916 15.6328 72.9365 15.8949 72.9775 16.1729C73.0231 16.4508 73.0892 16.6901 73.1758 16.8906V17H71.8564C71.7926 16.8542 71.7425 16.6605 71.7061 16.4189C71.6696 16.1729 71.6514 15.945 71.6514 15.7354ZM71.8701 12.5156L71.8838 13.4043H70.6055C70.2454 13.4043 69.9242 13.4339 69.6416 13.4932C69.359 13.5479 69.1221 13.6322 68.9307 13.7461C68.7393 13.86 68.5934 14.0036 68.4932 14.1768C68.3929 14.3454 68.3428 14.5436 68.3428 14.7715C68.3428 15.0039 68.3952 15.2158 68.5 15.4072C68.6048 15.5986 68.762 15.7513 68.9717 15.8652C69.1859 15.9746 69.4479 16.0293 69.7578 16.0293C70.1452 16.0293 70.487 15.9473 70.7832 15.7832C71.0794 15.6191 71.3141 15.4186 71.4873 15.1816C71.665 14.9447 71.7607 14.7145 71.7744 14.4912L72.3145 15.0996C72.2826 15.291 72.196 15.5029 72.0547 15.7354C71.9134 15.9678 71.7243 16.1911 71.4873 16.4053C71.2549 16.6149 70.9769 16.7904 70.6533 16.9316C70.3343 17.0684 69.9743 17.1367 69.5732 17.1367C69.0719 17.1367 68.6322 17.0387 68.2539 16.8428C67.8802 16.6468 67.5885 16.3848 67.3789 16.0566C67.1738 15.724 67.0713 15.3525 67.0713 14.9424C67.0713 14.5459 67.1488 14.1973 67.3037 13.8965C67.4587 13.5911 67.682 13.3382 67.9736 13.1377C68.2653 12.9326 68.6162 12.7777 69.0264 12.6729C69.4365 12.568 69.8945 12.5156 70.4004 12.5156H71.8701ZM79.8887 7.04688V17H78.5693V7.04688H79.8887ZM85.8975 7.04688L81.7617 11.6885L79.4375 14.1016L79.2188 12.6934L80.9688 10.7656L84.3115 7.04688H85.8975ZM84.626 17L80.9414 12.1465L81.7275 11.1006L86.1982 17H84.626ZM86.6426 13.3838V13.2266C86.6426 12.6934 86.7201 12.1989 86.875 11.7432C87.0299 11.2829 87.2533 10.8841 87.5449 10.5469C87.8366 10.2051 88.1898 9.94076 88.6045 9.75391C89.0192 9.5625 89.484 9.4668 89.999 9.4668C90.5186 9.4668 90.9857 9.5625 91.4004 9.75391C91.8197 9.94076 92.1751 10.2051 92.4668 10.5469C92.763 10.8841 92.9886 11.2829 93.1436 11.7432C93.2985 12.1989 93.376 12.6934 93.376 13.2266V13.3838C93.376 13.917 93.2985 14.4115 93.1436 14.8672C92.9886 15.3229 92.763 15.7217 92.4668 16.0635C92.1751 16.4007 91.8219 16.665 91.4072 16.8564C90.9971 17.0433 90.5322 17.1367 90.0127 17.1367C89.4932 17.1367 89.026 17.0433 88.6113 16.8564C88.1966 16.665 87.8411 16.4007 87.5449 16.0635C87.2533 15.7217 87.0299 15.3229 86.875 14.8672C86.7201 14.4115 86.6426 13.917 86.6426 13.3838ZM87.9072 13.2266V13.3838C87.9072 13.7529 87.9505 14.1016 88.0371 14.4297C88.1237 14.7533 88.2536 15.0404 88.4268 15.291C88.6045 15.5417 88.8255 15.7399 89.0898 15.8857C89.3542 16.027 89.6618 16.0977 90.0127 16.0977C90.359 16.0977 90.6621 16.027 90.9219 15.8857C91.1862 15.7399 91.4049 15.5417 91.5781 15.291C91.7513 15.0404 91.8812 14.7533 91.9678 14.4297C92.0589 14.1016 92.1045 13.7529 92.1045 13.3838V13.2266C92.1045 12.862 92.0589 12.5179 91.9678 12.1943C91.8812 11.8662 91.749 11.5768 91.5713 11.3262C91.3981 11.071 91.1794 10.8704 90.915 10.7246C90.6553 10.5788 90.3499 10.5059 89.999 10.5059C89.6527 10.5059 89.3473 10.5788 89.083 10.7246C88.8232 10.8704 88.6045 11.071 88.4268 11.3262C88.2536 11.5768 88.1237 11.8662 88.0371 12.1943C87.9505 12.5179 87.9072 12.862 87.9072 13.2266ZM99.4873 15.291V9.60352H100.759V17H99.5488L99.4873 15.291ZM99.7266 13.7324L100.253 13.7188C100.253 14.2109 100.201 14.6667 100.096 15.0859C99.9954 15.5007 99.8314 15.8607 99.6035 16.166C99.3757 16.4714 99.0771 16.7106 98.708 16.8838C98.3389 17.0524 97.89 17.1367 97.3613 17.1367C97.0013 17.1367 96.6709 17.0843 96.3701 16.9795C96.0739 16.8747 95.8187 16.7129 95.6045 16.4941C95.3903 16.2754 95.224 15.9906 95.1055 15.6396C94.9915 15.2887 94.9346 14.8672 94.9346 14.375V9.60352H96.1992V14.3887C96.1992 14.7214 96.2357 14.9971 96.3086 15.2158C96.3861 15.43 96.4886 15.6009 96.6162 15.7285C96.7484 15.8516 96.8942 15.9382 97.0537 15.9883C97.2178 16.0384 97.3864 16.0635 97.5596 16.0635C98.0973 16.0635 98.5234 15.9609 98.8379 15.7559C99.1523 15.5462 99.3779 15.266 99.5146 14.915C99.6559 14.5596 99.7266 14.1654 99.7266 13.7324ZM105.783 9.60352V10.5742H101.784V9.60352H105.783ZM103.138 7.80566H104.402V15.168C104.402 15.4186 104.441 15.6077 104.519 15.7354C104.596 15.863 104.696 15.9473 104.819 15.9883C104.942 16.0293 105.075 16.0498 105.216 16.0498C105.321 16.0498 105.43 16.0407 105.544 16.0225C105.662 15.9997 105.751 15.9814 105.811 15.9678L105.817 17C105.717 17.0319 105.585 17.0615 105.421 17.0889C105.261 17.1208 105.068 17.1367 104.84 17.1367C104.53 17.1367 104.245 17.0752 103.985 16.9521C103.726 16.8291 103.518 16.624 103.363 16.3369C103.213 16.0452 103.138 15.6533 103.138 15.1611V7.80566ZM111.573 15.0381C111.573 14.8558 111.532 14.6872 111.45 14.5322C111.373 14.3727 111.211 14.2292 110.965 14.1016C110.723 13.9694 110.359 13.8555 109.871 13.7598C109.461 13.6732 109.09 13.5706 108.757 13.4521C108.429 13.3337 108.148 13.1901 107.916 13.0215C107.688 12.8529 107.513 12.6546 107.39 12.4268C107.267 12.1989 107.205 11.9323 107.205 11.627C107.205 11.3353 107.269 11.0596 107.396 10.7998C107.529 10.54 107.713 10.3099 107.95 10.1094C108.192 9.90885 108.481 9.75163 108.818 9.6377C109.156 9.52376 109.532 9.4668 109.946 9.4668C110.539 9.4668 111.045 9.57161 111.464 9.78125C111.883 9.99089 112.204 10.2712 112.428 10.6221C112.651 10.9684 112.763 11.3535 112.763 11.7773H111.498C111.498 11.5723 111.437 11.374 111.313 11.1826C111.195 10.9867 111.02 10.8249 110.787 10.6973C110.559 10.5697 110.279 10.5059 109.946 10.5059C109.595 10.5059 109.311 10.5605 109.092 10.6699C108.878 10.7747 108.72 10.9092 108.62 11.0732C108.524 11.2373 108.477 11.4105 108.477 11.5928C108.477 11.7295 108.499 11.8525 108.545 11.9619C108.595 12.0667 108.682 12.1647 108.805 12.2559C108.928 12.3424 109.101 12.4245 109.324 12.502C109.548 12.5794 109.832 12.6569 110.179 12.7344C110.785 12.8711 111.284 13.0352 111.676 13.2266C112.068 13.418 112.359 13.6527 112.551 13.9307C112.742 14.2087 112.838 14.5459 112.838 14.9424C112.838 15.266 112.77 15.5622 112.633 15.8311C112.501 16.0999 112.307 16.3324 112.052 16.5283C111.801 16.7197 111.5 16.8701 111.149 16.9795C110.803 17.0843 110.413 17.1367 109.98 17.1367C109.329 17.1367 108.777 17.0205 108.326 16.7881C107.875 16.5557 107.533 16.2549 107.301 15.8857C107.068 15.5166 106.952 15.127 106.952 14.7168H108.224C108.242 15.0632 108.342 15.3389 108.524 15.5439C108.707 15.7445 108.93 15.888 109.194 15.9746C109.459 16.0566 109.721 16.0977 109.98 16.0977C110.327 16.0977 110.616 16.0521 110.849 15.9609C111.086 15.8698 111.266 15.7445 111.389 15.585C111.512 15.4255 111.573 15.2432 111.573 15.0381ZM115.873 9.60352V17H114.602V9.60352H115.873ZM114.506 7.6416C114.506 7.43652 114.567 7.26335 114.69 7.12207C114.818 6.98079 115.005 6.91016 115.251 6.91016C115.493 6.91016 115.677 6.98079 115.805 7.12207C115.937 7.26335 116.003 7.43652 116.003 7.6416C116.003 7.83757 115.937 8.00618 115.805 8.14746C115.677 8.28418 115.493 8.35254 115.251 8.35254C115.005 8.35254 114.818 8.28418 114.69 8.14746C114.567 8.00618 114.506 7.83757 114.506 7.6416Z" fill="black" fill-opacity="0.2"/>
</svg>
