<svg width="42" height="42" viewBox="0 0 42 42" fill="none" xmlns="http://www.w3.org/2000/svg">
<circle cx="21" cy="21" r="21" fill="#9581B2"/>
<path d="M28 28.875V27.125C28 26.1967 27.6312 25.3065 26.9749 24.6501C26.3185 23.9937 25.4283 23.625 24.5 23.625H17.5C16.5717 23.625 15.6815 23.9937 15.0251 24.6501C14.3687 25.3065 14 26.1967 14 27.125V28.875M24.5 16.625C24.5 18.558 22.933 20.125 21 20.125C19.067 20.125 17.5 18.558 17.5 16.625C17.5 14.692 19.067 13.125 21 13.125C22.933 13.125 24.5 14.692 24.5 16.625Z" stroke="white" stroke-width="2" stroke-linecap="round" stroke-linejoin="round"/>
</svg>
